<?xml version="1.0" encoding="UTF-8" standalone="no"?>
<!DOCTYPE svg PUBLIC "-//W3C//DTD SVG 1.1//EN" "http://www.w3.org/Graphics/SVG/1.1/DTD/svg11.dtd">
<svg width="100%" height="100%" viewBox="0 0 1000 1000" version="1.1" xmlns="http://www.w3.org/2000/svg" xmlns:xlink="http://www.w3.org/1999/xlink" xml:space="preserve" xmlns:serif="http://www.serif.com/" style="fill-rule:evenodd;clip-rule:evenodd;stroke-linejoin:round;stroke-miterlimit:2;">
    <g transform="matrix(1.12381,0,0,1.12733,208.939,-174.634)">
        <path d="M523.266,299.712C480.482,299.712 430.76,280.248 386.797,274.993C352.574,270.902 310.691,271.999 277.575,281.881C257.221,287.954 236.503,298.201 216.807,305.427C202.14,310.809 188.868,322.391 176.447,331.666C143.063,356.591 122.198,374.568 106.727,413.707C103.397,422.132 94.633,434.785 94.633,444.39C94.633,448.91 83.064,467.896 77.704,477.805C68.533,494.76 60.438,514.339 55.009,532.782C45.882,563.784 42.474,597.449 39.176,629.436C36.196,658.348 30.5,687.641 32.815,716.843C34.94,743.651 49.736,792.855 65.804,814.688C72.212,823.394 80.41,832.768 88.542,839.865C89.693,840.87 93.773,842.239 94.348,843.145C97.985,848.88 101.965,853.565 107.687,858.151C120.289,868.253 140.205,872.492 155.094,878.194C186.493,890.219 215.47,904.728 248.858,911.357C265.906,914.741 282.66,919.077 299.956,921.449C321.066,924.343 344.126,922.744 365.415,922.744C378.079,922.744 392.648,925.454 405.234,923.242C417.508,921.084 430.559,921.909 442.78,919.024C447.363,917.942 453.966,913.006 458.118,913.006C460.093,913.006 455.313,910.173 453.63,909.141C450.532,907.242 446.991,904.541 444.433,901.983C435.872,893.422 427.237,885.184 417.646,877.819C389.242,856.008 361.323,833.297 332.512,811.524C310.789,795.106 286.813,779.98 264.142,764.795C255.491,759 245.572,754.673 237.807,747.627C187.277,701.782 150.578,600.997 164.45,535.665C168.288,517.589 174.901,467.633 183.472,455.893C193.026,442.806 209.438,439.967 223.923,435.027C232.543,432.087 240.262,426.817 248.548,423.066C266.013,415.16 288.838,409.269 307.811,407.432C316.154,406.625 324.367,402.198 332.393,400.011C348.422,395.643 368.225,394.221 383.21,387.119C407.945,375.395 435.795,363.963 461.716,352.012C487.656,340.052 516.533,329.471 533.329,304.771C539.048,296.362 519.91,294.685 515.08,293.477C498.963,289.448 465.87,280.835 450.595,288.393" style="fill:rgb(42,144,249);"/>
    </g>
    <g transform="matrix(1.08317,0,0,1,-75.0649,7.63153)">
        <path d="M615.244,100.107C614.779,100.056 614.306,100.03 613.828,100.03C547.805,100.03 492.72,153.353 448.096,195.593C351.975,286.579 256.779,483.996 274.221,622.553C277.047,645.003 295.242,669.508 306.729,688.954C324.696,719.368 347.07,746.972 372.032,771.934C392.041,791.943 416.286,805.901 440.418,820.287C505.15,858.877 565.321,884.871 641.724,884.871C665.445,884.871 693.884,881.502 717.392,870.544C734.713,862.47 749.412,850.336 758.68,833.11C762.197,826.572 764.536,819.826 766.87,812.793C770.024,803.288 769.091,797.159 767.575,793.246C765.696,788.401 762.462,784.891 757.516,782.717C755.262,781.727 752.34,781.034 748.857,780.566C745.275,780.084 740.378,779.95 735.301,777.133C711.512,763.933 689.171,747.925 666.746,732.601C635.957,711.562 564.974,663.632 516.922,619.763C497.791,602.298 482.299,585.805 475.597,572.008C471.196,562.949 471.292,550.359 469.997,540.495C460.593,468.87 499.999,397.132 546.875,345.346C564.877,325.459 588.471,310.53 609.362,293.96C636.392,272.519 659.949,246.844 689.802,228.729C719.687,210.595 756.548,205.146 788.083,190.791C787.986,190.836 787.717,190.958 787.717,190.958C787.717,190.958 809.213,187.94 816.751,185.385C823.163,183.211 826.886,179.28 828.488,176.386C830.759,172.284 832.505,165.81 827.221,158.854C826.484,157.884 825.08,156.358 822.996,154.918C820.276,153.039 814.931,150.399 814.352,150.174C802.729,145.661 793.887,139.664 782.96,134.274C780.221,132.923 778.043,130.558 775.637,128.586C772.484,126.003 769.175,123.712 765.486,122.139C735.431,109.327 696.59,109.579 665.174,104.683C660.897,104.016 629.957,102.045 624.325,101.69C622.359,100.527 620.103,99.866 617.707,99.866C616.866,99.866 616.042,99.947 615.244,100.107ZM614.493,130.011L613.828,130.03C554.586,130.03 506.362,180.281 466.321,218.183C376.051,303.631 285.283,488.377 301.664,618.5C302.715,626.854 307.059,635.371 311.919,643.744C317.875,654.003 324.821,663.918 330.058,672.784C346.763,701.062 367.612,726.683 390.82,749.892C409.19,768.261 431.617,780.797 453.772,794.005C514.256,830.062 570.335,854.871 641.724,854.871C658.758,854.871 678.643,853.055 696.517,846.957C712.364,841.551 726.742,832.889 734.75,818.005C736.287,815.149 737.486,812.223 738.562,809.233C733.636,808.209 727.504,806.514 722.673,803.833C698.148,790.225 675.087,773.772 651.968,757.974C620.537,736.497 548.126,687.486 499.072,642.702C476.585,622.172 458.964,602.194 451.086,585.977C445.289,574.043 444.283,557.714 442.577,544.719C432,464.161 474.376,382.587 527.098,324.343C546.135,303.313 570.908,287.278 592.998,269.756C620.931,247.6 645.417,221.276 676.265,202.556C706.566,184.17 743.716,178.103 775.851,163.802C774.425,163.054 772.971,162.311 771.482,161.577C768.07,159.894 764.984,157.593 762.006,155.099C759.845,153.29 757.887,151.14 755.343,150.055C727.175,138.047 690.674,138.966 661.23,134.377C655.984,133.559 622.005,132.59 614.493,130.011Z" style="fill:rgb(21,49,79);"/>
    </g>
    <g transform="matrix(1.23966,0,0,1.06776,-91.2425,-38.0256)">
        <path d="M496.303,278.318C495.194,278.276 494.063,278.413 492.939,278.745C492.939,278.745 482.316,281.956 477.435,284.518C473.75,286.453 469.767,286.927 465.974,287.861C461.834,288.88 457.833,290.211 454.113,292.42C434.395,304.132 418.801,329.507 407.496,348.919C402.16,358.081 394.615,366.031 388.571,374.724C385.288,379.448 381.824,385.772 381.203,391.636C380.962,393.906 381.08,399.85 381.147,400.675C381.392,403.681 382.207,405.978 383.285,407.729C382.844,409.649 382.393,411.477 381.882,413.132C374.664,436.504 369.149,481.615 368.655,508.91C368.628,509.416 368.614,509.923 368.614,510.433L368.614,512.915L368.617,512.994C368.644,522.706 370.734,527.753 373.677,529.728C372.364,541.956 371.622,552.933 371.622,561.16C371.622,568.913 377.044,575.208 383.722,575.208C390.4,575.208 395.822,568.913 395.822,561.16C395.822,534.421 404.179,475.442 414.09,447.399C430.266,413.104 445.301,379.452 466.524,348.464C470.995,341.935 475.817,335.485 480.685,329.08C483.43,326.303 486.032,323.386 488.387,320.228C490.798,316.994 495.933,311.204 501.214,307.086C503.118,305.601 504.778,303.837 506.342,303.837C513.02,303.837 518.442,297.542 518.442,289.789C518.442,282.035 513.02,275.741 506.342,275.741C503.335,275.741 499.887,276.618 496.303,278.318ZM382.813,391.765C382.042,393.075 381.254,395.133 381.137,398.188C381.214,396.696 381.548,394.385 382.813,391.765Z" style="fill:rgb(42,144,249);"/>
    </g>
</svg>
