<?xml version="1.0" encoding="UTF-8" standalone="no"?>
<!DOCTYPE svg PUBLIC "-//W3C//DTD SVG 1.1//EN" "http://www.w3.org/Graphics/SVG/1.1/DTD/svg11.dtd">
<svg width="100%" height="100%" viewBox="0 0 60 60" version="1.1" xmlns="http://www.w3.org/2000/svg" xmlns:xlink="http://www.w3.org/1999/xlink" xml:space="preserve" xmlns:serif="http://www.serif.com/" style="fill-rule:evenodd;clip-rule:evenodd;stroke-linejoin:round;stroke-miterlimit:2;">
    <g transform="matrix(1,0,0,1,30,30)">
        <g transform="matrix(1,0,0,1,-30,-30)">
            <path d="M60,30C60,13.443 46.557,0 30,0C13.443,0 0,13.443 0,30C0,46.557 13.443,60 30,60C46.557,60 60,46.557 60,30Z" style="fill:rgb(239,243,253);"/>
            <path d="M31.815,39.239C30.588,39.239 29.497,39.028 28.543,38.608C27.594,38.188 26.844,37.602 26.293,36.852C25.741,36.102 25.449,35.236 25.415,34.253L28.619,34.253C28.648,34.724 28.804,35.136 29.088,35.489C29.372,35.835 29.75,36.105 30.222,36.298C30.693,36.492 31.222,36.588 31.807,36.588C32.432,36.588 32.986,36.48 33.469,36.264C33.952,36.043 34.33,35.736 34.602,35.344C34.875,34.952 35.009,34.5 35.003,33.989C35.009,33.46 34.872,32.994 34.594,32.591C34.315,32.188 33.912,31.872 33.384,31.645C32.861,31.418 32.23,31.304 31.491,31.304L29.949,31.304L29.949,28.866L31.491,28.866C32.099,28.866 32.631,28.761 33.085,28.551C33.545,28.341 33.906,28.046 34.168,27.665C34.429,27.278 34.557,26.832 34.551,26.327C34.557,25.832 34.446,25.403 34.219,25.04C33.997,24.671 33.682,24.384 33.273,24.179C32.869,23.974 32.395,23.872 31.849,23.872C31.315,23.872 30.821,23.969 30.366,24.162C29.912,24.355 29.546,24.631 29.267,24.989C28.989,25.341 28.841,25.761 28.824,26.25L25.781,26.25C25.804,25.273 26.085,24.415 26.625,23.676C27.171,22.932 27.898,22.352 28.807,21.938C29.716,21.517 30.736,21.307 31.866,21.307C33.031,21.307 34.043,21.526 34.901,21.963C35.764,22.395 36.432,22.977 36.903,23.71C37.375,24.443 37.611,25.253 37.611,26.139C37.617,27.122 37.327,27.946 36.742,28.611C36.162,29.276 35.401,29.71 34.457,29.915L34.457,30.051C35.685,30.222 36.625,30.676 37.278,31.415C37.938,32.148 38.264,33.06 38.259,34.151C38.259,35.128 37.98,36.003 37.423,36.776C36.872,37.543 36.111,38.145 35.139,38.582C34.173,39.02 33.065,39.239 31.815,39.239Z" style="fill:rgb(40,81,227);fill-rule:nonzero;"/>
        </g>
    </g>
</svg>
