<?xml version="1.0" encoding="UTF-8" standalone="no"?>
<!DOCTYPE svg PUBLIC "-//W3C//DTD SVG 1.1//EN" "http://www.w3.org/Graphics/SVG/1.1/DTD/svg11.dtd">
<svg width="100%" height="100%" viewBox="0 0 2560 1600" version="1.1" xmlns="http://www.w3.org/2000/svg" xmlns:xlink="http://www.w3.org/1999/xlink" xml:space="preserve" xmlns:serif="http://www.serif.com/" style="fill-rule:evenodd;clip-rule:evenodd;stroke-linecap:round;">
    <g transform="matrix(1.34003,0,0,1.34003,721.206,-1.05915e-13)">
        <rect x="0" y="0" width="834" height="1194" style="fill:white;"/>
    </g>
    <g transform="matrix(1.34003,0,0,1.34003,721.206,-1.05915e-13)">
        <ellipse cx="423" cy="624.5" rx="250" ry="250.5" style="fill:rgb(217,217,217);"/>
    </g>
    <g transform="matrix(1.34003,0,0,1.34003,721.206,-1.05915e-13)">
        <path d="M267,222.194C267,216.016 261.984,211 255.806,211L28.194,211C22.016,211 17,216.016 17,222.194L17,283.806C17,289.984 22.016,295 28.194,295L255.806,295C261.984,295 267,289.984 267,283.806L267,222.194Z" style="fill:rgb(249,91,82);"/>
    </g>
    <g transform="matrix(1.34003,0,0,1.34003,721.206,-1.05915e-13)">
        <path d="M542,222.194C542,216.016 536.984,211 530.806,211L303.194,211C297.016,211 292,216.016 292,222.194L292,283.806C292,289.984 297.016,295 303.194,295L530.806,295C536.984,295 542,289.984 542,283.806L542,222.194Z" style="fill:rgb(249,91,82);"/>
    </g>
    <g transform="matrix(1.34003,0,0,1.34003,721.206,-1.05915e-13)">
        <circle cx="417" cy="624" r="12" style="fill:white;"/>
    </g>
    <g transform="matrix(1.34003,0,0,1.34003,721.206,-1.05915e-13)">
        <path d="M419.061,456.939C418.475,456.354 417.525,456.354 416.939,456.939L407.393,466.485C406.808,467.071 406.808,468.021 407.393,468.607C407.979,469.192 408.929,469.192 409.515,468.607L418,460.121L426.485,468.607C427.071,469.192 428.021,469.192 428.607,468.607C429.192,468.021 429.192,467.071 428.607,466.485L419.061,456.939ZM419.5,624L419.5,458L416.5,458L416.5,624L419.5,624Z" style="fill-rule:nonzero;"/>
    </g>
    <g transform="matrix(1.34003,0,0,1.34003,721.206,-1.05915e-13)">
        <path d="M536.445,506.47C536.445,505.642 535.774,504.97 534.945,504.97L521.445,504.97C520.617,504.97 519.945,505.642 519.945,506.47C519.945,507.299 520.617,507.97 521.445,507.97L533.445,507.97L533.445,519.97C533.445,520.799 534.117,521.47 534.945,521.47C535.774,521.47 536.445,520.799 536.445,519.97L536.445,506.47ZM418.061,625.476L536.006,507.531L533.885,505.409L415.939,623.355L418.061,625.476Z" style="fill-rule:nonzero;"/>
    </g>
    <g transform="matrix(1.34003,0,0,1.34003,721.206,-1.05915e-13)">
        <path d="M254.454,579.674C253.736,580.088 253.49,581.006 253.905,581.723L260.655,593.414C261.069,594.132 261.986,594.378 262.704,593.963C263.421,593.549 263.667,592.632 263.253,591.914L257.253,581.522L267.645,575.522C268.362,575.108 268.608,574.191 268.194,573.473C267.78,572.756 266.862,572.51 266.145,572.924L254.454,579.674ZM416.708,622.695L255.592,579.524L254.815,582.422L415.932,625.593L416.708,622.695Z" style="fill-rule:nonzero;"/>
    </g>
    <g transform="matrix(1.34003,0,0,1.34003,721.206,-1.05915e-13)">
        <path d="M297.555,741.658C297.555,742.486 298.226,743.158 299.055,743.158L312.555,743.158C313.383,743.158 314.055,742.486 314.055,741.658C314.055,740.83 313.383,740.158 312.555,740.158L300.555,740.158L300.555,728.158C300.555,727.33 299.883,726.658 299.055,726.658C298.226,726.658 297.555,727.33 297.555,728.158L297.555,741.658ZM415.939,622.652L297.994,740.597L300.115,742.719L418.061,624.773L415.939,622.652Z" style="fill-rule:nonzero;"/>
    </g>
    <g transform="matrix(1.34003,0,0,1.34003,721.206,-1.05915e-13)">
        <path d="M333.648,478.333C332.848,478.119 332.025,478.594 331.811,479.394L328.317,492.434C328.102,493.234 328.577,494.057 329.377,494.271C330.178,494.485 331,494.011 331.215,493.21L334.32,481.619L345.912,484.725C346.712,484.939 347.534,484.465 347.749,483.664C347.963,482.864 347.488,482.042 346.688,481.827L333.648,478.333ZM417.959,623.485L334.559,479.032L331.961,480.532L415.361,624.985L417.959,623.485Z" style="fill-rule:nonzero;"/>
    </g>
    <g transform="matrix(1.34003,0,0,1.34003,721.206,-1.05915e-13)">
        <rect x="396" y="391" width="42" height="42" style="fill:white;"/>
    </g>
    <g transform="matrix(1.34003,0,0,1.34003,721.206,-1.05915e-13)">
        <rect x="500" y="433" width="42" height="42" style="fill:white;"/>
    </g>
    <g transform="matrix(1.34003,0,0,1.34003,721.206,-1.05915e-13)">
        <rect x="565" y="689" width="42" height="41" style="fill:white;"/>
    </g>
    <g transform="matrix(1.34003,0,0,1.34003,721.206,-1.05915e-13)">
        <rect x="292" y="433" width="42" height="42" style="fill:white;"/>
    </g>
    <g transform="matrix(1.34003,0,0,1.34003,721.206,-1.05915e-13)">
        <rect x="396" y="815" width="42" height="42" style="fill:white;"/>
    </g>
    <g transform="matrix(1.34003,0,0,1.34003,721.206,-1.05915e-13)">
        <rect x="292" y="773" width="42" height="42" style="fill:white;"/>
    </g>
    <g transform="matrix(1.34003,0,0,1.34003,721.206,-1.05915e-13)">
        <rect x="226" y="689" width="42" height="41" style="fill:white;"/>
    </g>
    <g transform="matrix(1.34003,0,0,1.34003,721.206,-1.05915e-13)">
        <rect x="187" y="603" width="40" height="42" style="fill:white;"/>
    </g>
    <g transform="matrix(1.34003,0,0,1.34003,721.206,-1.05915e-13)">
        <rect x="226" y="510" width="42" height="43" style="fill:white;"/>
    </g>
    <g transform="matrix(1.34003,0,0,1.34003,721.206,-1.05915e-13)">
        <rect x="500" y="773" width="42" height="42" style="fill:white;"/>
    </g>
    <g transform="matrix(1.34003,0,0,1.34003,721.206,-1.05915e-13)">
        <rect x="565" y="510" width="42" height="43" style="fill:white;"/>
    </g>
    <g transform="matrix(1.34003,0,0,1.34003,721.206,-1.05915e-13)">
        <rect x="607" y="603" width="40" height="42" style="fill:white;"/>
    </g>
    <g transform="matrix(1.34003,0,0,1.34003,721.206,-1.05915e-13)">
        <path d="M409.853,399.545L409.853,425L406.771,425L406.771,402.777L406.622,402.777L400.407,406.903L400.407,403.771L406.771,399.545L409.853,399.545ZM417.174,425L417.174,422.763L425.576,413.565C426.562,412.488 427.374,411.552 428.012,410.756C428.65,409.953 429.122,409.199 429.429,408.494C429.744,407.782 429.901,407.036 429.901,406.257C429.901,405.362 429.686,404.587 429.255,403.933C428.832,403.278 428.252,402.773 427.515,402.417C426.777,402.06 425.949,401.882 425.029,401.882C424.051,401.882 423.198,402.085 422.469,402.491C421.748,402.889 421.189,403.448 420.791,404.169C420.401,404.89 420.207,405.735 420.207,406.705L417.273,406.705C417.273,405.213 417.617,403.904 418.305,402.777C418.993,401.65 419.929,400.772 421.114,400.142C422.307,399.512 423.645,399.197 425.129,399.197C426.62,399.197 427.942,399.512 429.093,400.142C430.245,400.772 431.148,401.621 431.803,402.69C432.458,403.759 432.785,404.948 432.785,406.257C432.785,407.193 432.615,408.109 432.275,409.004C431.944,409.891 431.364,410.881 430.535,411.974C429.715,413.06 428.576,414.386 427.117,415.952L421.4,422.067L421.4,422.266L433.232,422.266L433.232,425L417.174,425Z" style="fill-rule:nonzero;"/>
    </g>
    <g transform="matrix(1.34003,0,0,1.34003,721.206,-1.05915e-13)">
        <path d="M524.449,441.545L524.449,467L521.367,467L521.367,444.777L521.218,444.777L515.003,448.903L515.003,445.771L521.367,441.545L524.449,441.545Z" style="fill-rule:nonzero;"/>
    </g>
    <g transform="matrix(1.34003,0,0,1.34003,721.206,-1.05915e-13)">
        <path d="M578.039,544L578.039,541.763L586.441,532.565C587.427,531.488 588.239,530.552 588.877,529.756C589.515,528.953 589.988,528.199 590.294,527.494C590.609,526.782 590.767,526.036 590.767,525.257C590.767,524.362 590.551,523.587 590.12,522.933C589.698,522.278 589.118,521.773 588.38,521.417C587.643,521.06 586.814,520.882 585.894,520.882C584.917,520.882 584.063,521.085 583.334,521.491C582.613,521.889 582.054,522.448 581.656,523.169C581.267,523.89 581.072,524.735 581.072,525.705L578.139,525.705C578.139,524.213 578.483,522.904 579.17,521.777C579.858,520.65 580.794,519.772 581.979,519.142C583.172,518.512 584.511,518.197 585.994,518.197C587.485,518.197 588.807,518.512 589.959,519.142C591.11,519.772 592.014,520.621 592.668,521.69C593.323,522.759 593.65,523.948 593.65,525.257C593.65,526.193 593.48,527.109 593.14,528.004C592.809,528.891 592.229,529.881 591.4,530.974C590.58,532.06 589.441,533.386 587.982,534.952L582.265,541.067L582.265,541.266L594.097,541.266L594.097,544L578.039,544Z" style="fill-rule:nonzero;"/>
    </g>
    <g transform="matrix(1.34003,0,0,1.34003,721.206,-1.05915e-13)">
        <path d="M627.093,637.348C625.453,637.348 623.99,637.066 622.706,636.503C621.43,635.939 620.415,635.156 619.661,634.154C618.915,633.143 618.509,631.97 618.443,630.636L621.575,630.636C621.641,631.457 621.923,632.165 622.42,632.762C622.917,633.35 623.568,633.806 624.371,634.129C625.175,634.452 626.066,634.614 627.044,634.614C628.137,634.614 629.107,634.423 629.952,634.042C630.797,633.661 631.46,633.13 631.941,632.451C632.421,631.772 632.661,630.984 632.661,630.089C632.661,629.153 632.429,628.329 631.965,627.616C631.501,626.895 630.822,626.332 629.927,625.926C629.032,625.52 627.938,625.317 626.646,625.317L624.607,625.317L624.607,622.582L626.646,622.582C627.657,622.582 628.543,622.4 629.306,622.036C630.076,621.671 630.677,621.157 631.108,620.494C631.547,619.831 631.767,619.053 631.767,618.158C631.767,617.296 631.576,616.546 631.195,615.908C630.814,615.27 630.275,614.773 629.579,614.417C628.891,614.06 628.079,613.882 627.143,613.882C626.265,613.882 625.436,614.044 624.657,614.367C623.887,614.682 623.257,615.142 622.768,615.746C622.279,616.343 622.014,617.064 621.972,617.909L618.99,617.909C619.039,616.575 619.441,615.407 620.195,614.404C620.949,613.393 621.935,612.606 623.153,612.043C624.38,611.479 625.726,611.197 627.193,611.197C628.767,611.197 630.118,611.516 631.244,612.154C632.371,612.784 633.237,613.617 633.842,614.653C634.447,615.688 634.749,616.807 634.749,618.009C634.749,619.442 634.372,620.664 633.618,621.675C632.873,622.686 631.858,623.386 630.573,623.776L630.573,623.974C632.181,624.24 633.436,624.923 634.339,626.025C635.242,627.119 635.694,628.474 635.694,630.089C635.694,631.473 635.317,632.716 634.563,633.818C633.817,634.912 632.798,635.774 631.506,636.403C630.213,637.033 628.742,637.348 627.093,637.348Z" style="fill-rule:nonzero;"/>
    </g>
    <g transform="matrix(1.34003,0,0,1.34003,721.206,-1.05915e-13)">
        <path d="M308.314,441.545L308.314,467L305.232,467L305.232,444.777L305.083,444.777L298.868,448.903L298.868,445.771L305.232,441.545L308.314,441.545ZM324.584,441.545L324.584,467L321.501,467L321.501,444.777L321.352,444.777L315.138,448.903L315.138,445.771L321.501,441.545L324.584,441.545Z" style="fill-rule:nonzero;"/>
    </g>
    <g transform="matrix(1.34003,0,0,1.34003,721.206,-1.05915e-13)">
        <path d="M239.512,518.545L239.512,544L236.429,544L236.429,521.777L236.28,521.777L230.066,525.903L230.066,522.771L236.429,518.545L239.512,518.545ZM255.135,544.348C253.262,544.348 251.667,543.838 250.35,542.819C249.032,541.792 248.025,540.304 247.329,538.357C246.633,536.402 246.285,534.04 246.285,531.273C246.285,528.522 246.633,526.173 247.329,524.225C248.034,522.27 249.045,520.779 250.362,519.751C251.688,518.715 253.279,518.197 255.135,518.197C256.991,518.197 258.578,518.715 259.895,519.751C261.221,520.779 262.232,522.27 262.928,524.225C263.632,526.173 263.984,528.522 263.984,531.273C263.984,534.04 263.636,536.402 262.94,538.357C262.244,540.304 261.237,541.792 259.92,542.819C258.602,543.838 257.007,544.348 255.135,544.348ZM255.135,541.614C256.991,541.614 258.433,540.719 259.46,538.929C260.488,537.139 261.001,534.587 261.001,531.273C261.001,529.069 260.765,527.192 260.293,525.642C259.829,524.093 259.158,522.912 258.279,522.1C257.409,521.288 256.361,520.882 255.135,520.882C253.295,520.882 251.858,521.789 250.822,523.604C249.786,525.41 249.268,527.967 249.268,531.273C249.268,533.477 249.5,535.349 249.964,536.891C250.428,538.432 251.095,539.604 251.965,540.408C252.844,541.212 253.9,541.614 255.135,541.614Z" style="fill-rule:nonzero;"/>
    </g>
    <g transform="matrix(1.34003,0,0,1.34003,721.206,-1.05915e-13)">
        <path d="M206.818,611.197C207.862,611.206 208.906,611.405 209.95,611.794C210.994,612.183 211.947,612.83 212.809,613.733C213.671,614.628 214.363,615.85 214.885,617.4C215.407,618.949 215.668,620.892 215.668,623.229C215.668,625.491 215.452,627.5 215.021,629.257C214.599,631.005 213.986,632.48 213.182,633.681C212.386,634.883 211.417,635.794 210.273,636.416C209.138,637.037 207.854,637.348 206.42,637.348C204.995,637.348 203.723,637.066 202.605,636.503C201.494,635.931 200.583,635.14 199.87,634.129C199.166,633.11 198.715,631.929 198.516,630.587L201.548,630.587C201.822,631.755 202.365,632.72 203.177,633.483C203.997,634.237 205.078,634.614 206.42,634.614C208.384,634.614 209.934,633.756 211.069,632.041C212.212,630.326 212.784,627.902 212.784,624.77L212.585,624.77C212.121,625.466 211.57,626.067 210.932,626.572C210.294,627.078 209.586,627.467 208.807,627.74C208.028,628.014 207.199,628.151 206.321,628.151C204.863,628.151 203.525,627.79 202.307,627.069C201.097,626.34 200.127,625.342 199.398,624.074C198.677,622.798 198.317,621.339 198.317,619.699C198.317,618.141 198.665,616.716 199.361,615.423C200.065,614.122 201.051,613.087 202.319,612.316C203.595,611.545 205.095,611.173 206.818,611.197ZM206.818,613.932C205.774,613.932 204.834,614.193 203.997,614.715C203.168,615.229 202.51,615.925 202.021,616.803C201.54,617.673 201.3,618.638 201.3,619.699C201.3,620.759 201.532,621.725 201.996,622.595C202.468,623.457 203.11,624.144 203.922,624.658C204.743,625.163 205.675,625.416 206.719,625.416C207.506,625.416 208.239,625.263 208.919,624.956C209.598,624.641 210.191,624.215 210.696,623.676C211.21,623.129 211.612,622.512 211.902,621.824C212.192,621.128 212.337,620.403 212.337,619.649C212.337,618.655 212.096,617.723 211.616,616.853C211.144,615.983 210.489,615.278 209.652,614.74C208.823,614.201 207.879,613.932 206.818,613.932Z" style="fill-rule:nonzero;"/>
    </g>
    <g transform="matrix(1.34003,0,0,1.34003,721.206,-1.05915e-13)">
        <path d="M247.005,723.348C245.298,723.348 243.79,723.046 242.481,722.441C241.18,721.828 240.165,720.987 239.435,719.918C238.706,718.84 238.346,717.614 238.354,716.239C238.346,715.161 238.557,714.167 238.988,713.256C239.419,712.336 240.007,711.569 240.753,710.956C241.507,710.335 242.348,709.941 243.276,709.776L243.276,709.626C242.058,709.312 241.088,708.628 240.368,707.576C239.647,706.515 239.29,705.309 239.299,703.959C239.29,702.666 239.618,701.51 240.281,700.491C240.943,699.472 241.855,698.668 243.015,698.08C244.183,697.492 245.513,697.197 247.005,697.197C248.48,697.197 249.797,697.492 250.957,698.08C252.117,698.668 253.029,699.472 253.691,700.491C254.363,701.51 254.702,702.666 254.711,703.959C254.702,705.309 254.334,706.515 253.604,707.576C252.884,708.628 251.927,709.312 250.733,709.626L250.733,709.776C251.653,709.941 252.482,710.335 253.219,710.956C253.957,711.569 254.545,712.336 254.984,713.256C255.423,714.167 255.647,715.161 255.655,716.239C255.647,717.614 255.274,718.84 254.537,719.918C253.807,720.987 252.792,721.828 251.492,722.441C250.199,723.046 248.703,723.348 247.005,723.348ZM247.005,720.614C248.156,720.614 249.151,720.427 249.988,720.054C250.825,719.681 251.471,719.155 251.927,718.476C252.382,717.796 252.614,717.001 252.623,716.089C252.614,715.128 252.366,714.279 251.877,713.542C251.388,712.804 250.721,712.224 249.876,711.801C249.039,711.379 248.082,711.168 247.005,711.168C245.919,711.168 244.95,711.379 244.096,711.801C243.251,712.224 242.584,712.804 242.095,713.542C241.615,714.279 241.378,715.128 241.387,716.089C241.378,717.001 241.598,717.796 242.045,718.476C242.501,719.155 243.152,719.681 243.997,720.054C244.842,720.427 245.845,720.614 247.005,720.614ZM247.005,708.533C247.916,708.533 248.724,708.35 249.428,707.986C250.141,707.621 250.7,707.112 251.106,706.457C251.512,705.802 251.719,705.036 251.728,704.158C251.719,703.296 251.516,702.546 251.119,701.908C250.721,701.262 250.17,700.765 249.466,700.417C248.761,700.06 247.941,699.882 247.005,699.882C246.052,699.882 245.219,700.06 244.506,700.417C243.794,700.765 243.243,701.262 242.853,701.908C242.464,702.546 242.273,703.296 242.282,704.158C242.273,705.036 242.468,705.802 242.866,706.457C243.272,707.112 243.831,707.621 244.544,707.986C245.256,708.35 246.077,708.533 247.005,708.533Z" style="fill-rule:nonzero;"/>
    </g>
    <g transform="matrix(1.34003,0,0,1.34003,721.206,-1.05915e-13)">
        <path d="M306.433,807L317.818,784.479L317.818,784.28L304.693,784.28L304.693,781.545L321,781.545L321,784.429L309.664,807L306.433,807Z" style="fill-rule:nonzero;"/>
    </g>
    <g transform="matrix(1.34003,0,0,1.34003,721.206,-1.05915e-13)">
        <path d="M417.166,849.348C416.122,849.331 415.078,849.133 414.034,848.751C412.99,848.37 412.037,847.728 411.175,846.825C410.314,845.913 409.622,844.683 409.1,843.134C408.578,841.576 408.317,839.62 408.317,837.267C408.317,835.013 408.528,833.016 408.951,831.276C409.373,829.528 409.986,828.057 410.79,826.864C411.594,825.663 412.563,824.751 413.699,824.13C414.842,823.508 416.13,823.197 417.564,823.197C418.989,823.197 420.257,823.483 421.367,824.055C422.486,824.618 423.397,825.406 424.102,826.417C424.806,827.427 425.262,828.592 425.469,829.909L422.436,829.909C422.154,828.766 421.608,827.817 420.795,827.063C419.983,826.309 418.906,825.932 417.564,825.932C415.592,825.932 414.038,826.789 412.903,828.505C411.776,830.22 411.209,832.627 411.2,835.726L411.399,835.726C411.863,835.022 412.414,834.421 413.052,833.924C413.699,833.418 414.411,833.029 415.19,832.755C415.969,832.482 416.793,832.345 417.663,832.345C419.122,832.345 420.456,832.71 421.666,833.439C422.875,834.16 423.845,835.158 424.574,836.434C425.303,837.702 425.668,839.156 425.668,840.797C425.668,842.371 425.316,843.813 424.611,845.122C423.907,846.423 422.917,847.459 421.641,848.229C420.373,848.992 418.881,849.365 417.166,849.348ZM417.166,846.614C418.21,846.614 419.147,846.353 419.975,845.831C420.812,845.309 421.471,844.608 421.951,843.73C422.44,842.852 422.685,841.874 422.685,840.797C422.685,839.745 422.449,838.788 421.976,837.926C421.512,837.056 420.87,836.364 420.05,835.85C419.238,835.336 418.31,835.08 417.266,835.08C416.479,835.08 415.745,835.237 415.066,835.552C414.386,835.858 413.79,836.281 413.276,836.82C412.771,837.358 412.373,837.975 412.083,838.672C411.793,839.359 411.648,840.084 411.648,840.847C411.648,841.857 411.884,842.802 412.356,843.68C412.837,844.559 413.491,845.267 414.32,845.806C415.157,846.344 416.106,846.614 417.166,846.614Z" style="fill-rule:nonzero;"/>
    </g>
    <g transform="matrix(1.34003,0,0,1.34003,721.206,-1.05915e-13)">
        <path d="M520.943,807.348C519.484,807.348 518.171,807.058 517.003,806.478C515.834,805.898 514.898,805.103 514.194,804.092C513.489,803.081 513.104,801.929 513.038,800.636L516.021,800.636C516.137,801.788 516.659,802.741 517.587,803.495C518.523,804.241 519.642,804.614 520.943,804.614C521.987,804.614 522.915,804.369 523.727,803.88C524.547,803.391 525.189,802.72 525.653,801.867C526.125,801.005 526.362,800.031 526.362,798.946C526.362,797.836 526.117,796.846 525.628,795.975C525.148,795.097 524.485,794.405 523.64,793.9C522.794,793.394 521.829,793.138 520.744,793.129C519.965,793.121 519.165,793.241 518.345,793.49C517.525,793.73 516.849,794.041 516.319,794.422L513.435,794.074L514.977,781.545L528.201,781.545L528.201,784.28L517.562,784.28L516.667,791.787L516.816,791.787C517.338,791.373 517.993,791.029 518.78,790.755C519.567,790.482 520.387,790.345 521.241,790.345C522.799,790.345 524.186,790.718 525.405,791.464C526.631,792.201 527.592,793.212 528.288,794.496C528.992,795.781 529.345,797.247 529.345,798.896C529.345,800.52 528.98,801.97 528.251,803.246C527.53,804.514 526.536,805.517 525.268,806.254C524,806.983 522.558,807.348 520.943,807.348Z" style="fill-rule:nonzero;"/>
    </g>
    <g transform="matrix(1.34003,0,0,1.34003,721.206,-1.05915e-13)">
        <path d="M576.81,717.78L576.81,715.244L587.996,697.545L589.836,697.545L589.836,701.473L588.593,701.473L580.141,714.847L580.141,715.045L595.205,715.045L595.205,717.78L576.81,717.78ZM588.792,723L588.792,697.545L591.725,697.545L591.725,723L588.792,723Z" style="fill-rule:nonzero;"/>
    </g>
    <g transform="matrix(1.34003,0,0,1.34003,721.206,-1.05915e-13)">
        <ellipse cx="457" cy="419" rx="6" ry="7" style="fill:white;"/>
    </g>
    <g transform="matrix(1.29437,0.346826,-0.346826,1.29437,913.704,-168.451)">
        <circle cx="549.243" cy="482.717" r="6.672" style="fill:white;"/>
    </g>
    <g transform="matrix(-1.1605,-0.670017,0.670017,-1.1605,1865.62,1885.7)">
        <circle cx="615.54" cy="589.185" r="6.672" style="fill:white;"/>
    </g>
    <g transform="matrix(1.34003,0,0,1.34003,721.206,-1.05915e-13)">
        <ellipse cx="481" cy="432.5" rx="6" ry="6.5" style="fill:white;"/>
    </g>
    <g transform="matrix(1.29437,0.346826,-0.346826,1.29437,921.254,-174.481)">
        <circle cx="569.151" cy="501.867" r="6.672" style="fill:white;"/>
    </g>
    <g transform="matrix(-1.1605,-0.670017,0.670017,-1.1605,1845.78,1817)">
        <circle cx="601.266" cy="565.535" r="6.672" style="fill:white;"/>
    </g>
    <g transform="matrix(0.670017,-1.1605,1.1605,0.670017,69.0641,1091.85)">
        <circle cx="462.304" cy="828.859" r="6.672" style="fill:white;"/>
    </g>
    <g transform="matrix(0.670017,-1.1605,1.1605,0.670017,101.474,1109.74)">
        <circle cx="485.953" cy="814.585" r="6.672" style="fill:white;"/>
    </g>
    <g transform="matrix(-1.1605,-0.670017,0.670017,-1.1605,850.164,1851.62)">
        <circle cx="233.24" cy="677.994" r="6.672" style="fill:white;"/>
    </g>
    <g transform="matrix(-1.1605,-0.670017,0.670017,-1.1605,830.317,1782.92)">
        <circle cx="218.966" cy="654.344" r="6.672" style="fill:white;"/>
    </g>
    <g transform="matrix(-5.13041e-16,-1.34003,1.34003,-5.13041e-16,218.693,1077.39)">
        <circle cx="214.5" cy="589.5" r="6.5" style="fill:white;"/>
    </g>
    <g transform="matrix(-5.13041e-16,-1.34003,1.34003,-5.13041e-16,268.945,1063.32)">
        <ellipse cx="228" cy="565.5" rx="6.5" ry="7" style="fill:white;"/>
    </g>
    <g transform="matrix(0.670017,-1.1605,1.1605,0.670017,321.148,639.963)">
        <circle cx="264.318" cy="497.332" r="6.672" style="fill:white;"/>
    </g>
    <g transform="matrix(0.670017,-1.1605,1.1605,0.670017,353.558,657.844)">
        <circle cx="287.967" cy="483.058" r="6.672" style="fill:white;"/>
    </g>
    <g transform="matrix(0.670017,-1.1605,1.1605,0.670017,454.906,699.529)">
        <circle cx="352.722" cy="433.114" r="6.672" style="fill:white;"/>
    </g>
    <g transform="matrix(0.670017,-1.1605,1.1605,0.670017,487.316,717.41)">
        <circle cx="376.371" cy="418.84" r="6.672" style="fill:white;"/>
    </g>
    <g transform="matrix(-1.29437,-0.346826,0.346826,-1.29437,1188.19,2107.21)">
        <circle cx="277.757" cy="763.313" r="6.672" style="fill:white;"/>
    </g>
    <g transform="matrix(-1.29437,-0.346826,0.346826,-1.29437,1142.39,2049.86)">
        <circle cx="257.849" cy="744.164" r="6.672" style="fill:white;"/>
    </g>
    <g transform="matrix(-1.34003,-1.02608e-15,1.02608e-15,-1.34003,1715.51,2224.46)">
        <circle cx="371" cy="830" r="7" style="fill:white;"/>
    </g>
    <g transform="matrix(-1.34003,-1.02608e-15,1.02608e-15,-1.34003,1648.51,2189.61)">
        <circle cx="346" cy="817" r="6" style="fill:white;"/>
    </g>
    <g transform="matrix(0.346826,-1.29437,1.29437,0.346826,281.274,1467.86)">
        <circle cx="549.622" cy="761.62" r="6.672" style="fill:white;"/>
    </g>
    <g transform="matrix(0.346826,-1.29437,1.29437,0.346826,326.063,1472.88)">
        <circle cx="568.772" cy="741.712" r="6.672" style="fill:white;"/>
    </g>
    <g transform="matrix(-5.13041e-16,-1.34003,1.34003,-5.13041e-16,618.693,1715.91)">
        <ellipse cx="602" cy="678.5" rx="6.5" ry="7" style="fill:white;"/>
    </g>
    <g transform="matrix(-5.13041e-16,-1.34003,1.34003,-5.13041e-16,668.945,1700.5)">
        <ellipse cx="615" cy="654" rx="7" ry="6" style="fill:white;"/>
    </g>
    <g transform="matrix(1.34003,0,0,1.34003,721.206,-1.05915e-13)">
        <path d="M96.409,249.82L91.743,249.82C91.657,249.217 91.483,248.68 91.221,248.212C90.958,247.736 90.62,247.331 90.209,246.997C89.797,246.663 89.321,246.408 88.781,246.23C88.248,246.053 87.669,245.964 87.044,245.964C85.915,245.964 84.932,246.244 84.093,246.805C83.255,247.359 82.606,248.169 82.144,249.234C81.682,250.293 81.451,251.578 81.451,253.091C81.451,254.646 81.682,255.953 82.144,257.011C82.613,258.07 83.266,258.869 84.104,259.408C84.942,259.948 85.912,260.218 87.012,260.218C87.63,260.218 88.202,260.136 88.728,259.973C89.26,259.81 89.733,259.572 90.144,259.259C90.557,258.94 90.897,258.553 91.167,258.098C91.444,257.643 91.636,257.125 91.743,256.543L96.409,256.564C96.288,257.565 95.986,258.531 95.503,259.462C95.027,260.385 94.385,261.212 93.575,261.944C92.772,262.668 91.814,263.244 90.699,263.67C89.591,264.089 88.337,264.298 86.938,264.298C84.992,264.298 83.252,263.858 81.718,262.977C80.191,262.097 78.983,260.822 78.096,259.153C77.215,257.484 76.775,255.463 76.775,253.091C76.775,250.712 77.222,248.688 78.117,247.018C79.012,245.349 80.226,244.078 81.76,243.205C83.294,242.324 85.02,241.884 86.938,241.884C88.202,241.884 89.374,242.061 90.454,242.416C91.54,242.771 92.503,243.29 93.341,243.972C94.179,244.646 94.86,245.474 95.386,246.454C95.919,247.434 96.26,248.556 96.409,249.82ZM104.298,264.309C103.254,264.309 102.323,264.128 101.506,263.766C100.69,263.396 100.043,262.853 99.568,262.136C99.099,261.411 98.864,260.509 98.864,259.43C98.864,258.521 99.031,257.757 99.365,257.139C99.699,256.521 100.153,256.024 100.729,255.648C101.304,255.271 101.957,254.987 102.689,254.795C103.428,254.604 104.202,254.469 105.011,254.391C105.963,254.291 106.73,254.199 107.312,254.114C107.895,254.021 108.317,253.886 108.58,253.709C108.843,253.531 108.974,253.268 108.974,252.92L108.974,252.857C108.974,252.182 108.761,251.66 108.335,251.29C107.916,250.921 107.32,250.737 106.545,250.737C105.729,250.737 105.079,250.918 104.596,251.28C104.113,251.635 103.793,252.082 103.637,252.622L99.44,252.281C99.653,251.287 100.072,250.428 100.697,249.703C101.322,248.972 102.128,248.411 103.115,248.02C104.109,247.622 105.26,247.423 106.567,247.423C107.476,247.423 108.346,247.53 109.177,247.743C110.015,247.956 110.757,248.286 111.403,248.734C112.057,249.181 112.572,249.756 112.948,250.46C113.325,251.156 113.513,251.99 113.513,252.963L113.513,264L109.209,264L109.209,261.731L109.081,261.731C108.818,262.242 108.467,262.693 108.026,263.084C107.586,263.467 107.057,263.769 106.439,263.989C105.821,264.202 105.107,264.309 104.298,264.309ZM105.597,261.177C106.265,261.177 106.854,261.045 107.366,260.783C107.877,260.513 108.278,260.151 108.57,259.696C108.861,259.241 109.006,258.727 109.006,258.151L109.006,256.415C108.864,256.507 108.669,256.592 108.42,256.67C108.179,256.741 107.906,256.809 107.6,256.873C107.295,256.93 106.989,256.983 106.684,257.033C106.379,257.075 106.102,257.114 105.853,257.15C105.32,257.228 104.855,257.352 104.457,257.523C104.06,257.693 103.751,257.924 103.531,258.215C103.31,258.499 103.2,258.854 103.2,259.281C103.2,259.898 103.424,260.371 103.871,260.697C104.326,261.017 104.901,261.177 105.597,261.177ZM121.572,242.182L121.572,264L117.034,264L117.034,242.182L121.572,242.182ZM132.665,264.32C130.982,264.32 129.533,263.979 128.318,263.297C127.111,262.608 126.181,261.635 125.527,260.378C124.874,259.114 124.547,257.619 124.547,255.893C124.547,254.21 124.874,252.732 125.527,251.461C126.181,250.19 127.1,249.199 128.286,248.489C129.48,247.778 130.879,247.423 132.484,247.423C133.563,247.423 134.568,247.597 135.499,247.945C136.436,248.286 137.253,248.801 137.949,249.49C138.652,250.179 139.199,251.045 139.59,252.089C139.98,253.126 140.176,254.341 140.176,255.733L140.176,256.979L126.358,256.979L126.358,254.167L135.904,254.167C135.904,253.513 135.762,252.935 135.477,252.43C135.193,251.926 134.799,251.532 134.295,251.248C133.798,250.957 133.219,250.811 132.558,250.811C131.869,250.811 131.259,250.971 130.726,251.29C130.2,251.603 129.789,252.026 129.49,252.558C129.192,253.084 129.039,253.67 129.032,254.316L129.032,256.99C129.032,257.8 129.181,258.499 129.48,259.089C129.785,259.678 130.215,260.133 130.769,260.452C131.323,260.772 131.98,260.932 132.74,260.932C133.244,260.932 133.705,260.861 134.124,260.719C134.544,260.577 134.902,260.364 135.2,260.08C135.499,259.795 135.726,259.447 135.882,259.036L140.08,259.312C139.867,260.321 139.43,261.202 138.769,261.955C138.116,262.7 137.271,263.283 136.234,263.702C135.204,264.114 134.014,264.32 132.665,264.32ZM147.676,254.54L147.676,264L143.137,264L143.137,247.636L147.463,247.636L147.463,250.523L147.654,250.523C148.017,249.572 148.624,248.819 149.476,248.265C150.328,247.704 151.362,247.423 152.576,247.423C153.713,247.423 154.703,247.672 155.548,248.169C156.394,248.666 157.051,249.376 157.519,250.3C157.988,251.216 158.222,252.31 158.222,253.581L158.222,264L153.684,264L153.684,254.391C153.691,253.389 153.436,252.608 152.917,252.047C152.399,251.479 151.685,251.195 150.776,251.195C150.165,251.195 149.625,251.326 149.156,251.589C148.695,251.852 148.333,252.235 148.07,252.739C147.814,253.237 147.683,253.837 147.676,254.54ZM167.829,264.266C166.586,264.266 165.461,263.947 164.452,263.308C163.451,262.661 162.655,261.713 162.066,260.463C161.483,259.206 161.192,257.665 161.192,255.839C161.192,253.964 161.494,252.406 162.098,251.163C162.701,249.913 163.504,248.979 164.505,248.361C165.514,247.736 166.618,247.423 167.819,247.423C168.735,247.423 169.498,247.58 170.109,247.892C170.727,248.197 171.224,248.581 171.6,249.043C171.984,249.497 172.275,249.945 172.474,250.385L172.613,250.385L172.613,242.182L177.14,242.182L177.14,264L172.666,264L172.666,261.379L172.474,261.379C172.261,261.834 171.959,262.285 171.569,262.732C171.185,263.173 170.684,263.538 170.066,263.83C169.456,264.121 168.71,264.266 167.829,264.266ZM169.267,260.655C169.999,260.655 170.617,260.456 171.121,260.058C171.632,259.653 172.023,259.089 172.293,258.364C172.57,257.64 172.708,256.791 172.708,255.818C172.708,254.845 172.574,254 172.304,253.283C172.034,252.565 171.643,252.011 171.132,251.621C170.62,251.23 169.999,251.035 169.267,251.035C168.522,251.035 167.893,251.237 167.382,251.642C166.87,252.047 166.483,252.608 166.221,253.325C165.958,254.043 165.826,254.874 165.826,255.818C165.826,256.77 165.958,257.612 166.221,258.343C166.49,259.067 166.877,259.636 167.382,260.048C167.893,260.452 168.522,260.655 169.267,260.655ZM185.538,264.309C184.494,264.309 183.563,264.128 182.747,263.766C181.93,263.396 181.284,262.853 180.808,262.136C180.339,261.411 180.105,260.509 180.105,259.43C180.105,258.521 180.271,257.757 180.605,257.139C180.939,256.521 181.394,256.024 181.969,255.648C182.544,255.271 183.198,254.987 183.929,254.795C184.668,254.604 185.442,254.469 186.252,254.391C187.203,254.291 187.97,254.199 188.553,254.114C189.135,254.021 189.558,253.886 189.82,253.709C190.083,253.531 190.215,253.268 190.215,252.92L190.215,252.857C190.215,252.182 190.002,251.66 189.575,251.29C189.156,250.921 188.56,250.737 187.786,250.737C186.969,250.737 186.319,250.918 185.836,251.28C185.353,251.635 185.034,252.082 184.877,252.622L180.68,252.281C180.893,251.287 181.312,250.428 181.937,249.703C182.562,248.972 183.368,248.411 184.355,248.02C185.35,247.622 186.5,247.423 187.807,247.423C188.716,247.423 189.586,247.53 190.417,247.743C191.255,247.956 191.997,248.286 192.644,248.734C193.297,249.181 193.812,249.756 194.188,250.46C194.565,251.156 194.753,251.99 194.753,252.963L194.753,264L190.449,264L190.449,261.731L190.321,261.731C190.058,262.242 189.707,262.693 189.267,263.084C188.826,263.467 188.297,263.769 187.679,263.989C187.061,264.202 186.347,264.309 185.538,264.309ZM186.838,261.177C187.505,261.177 188.095,261.045 188.606,260.783C189.117,260.513 189.519,260.151 189.81,259.696C190.101,259.241 190.247,258.727 190.247,258.151L190.247,256.415C190.105,256.507 189.909,256.592 189.661,256.67C189.419,256.741 189.146,256.809 188.84,256.873C188.535,256.93 188.23,256.983 187.924,257.033C187.619,257.075 187.342,257.114 187.093,257.15C186.561,257.228 186.095,257.352 185.698,257.523C185.3,257.693 184.991,257.924 184.771,258.215C184.551,258.499 184.441,258.854 184.441,259.281C184.441,259.898 184.664,260.371 185.112,260.697C185.566,261.017 186.142,261.177 186.838,261.177ZM198.274,264L198.274,247.636L202.674,247.636L202.674,250.491L202.844,250.491C203.143,249.476 203.643,248.709 204.346,248.19C205.05,247.665 205.859,247.402 206.775,247.402C207.003,247.402 207.248,247.416 207.51,247.445C207.773,247.473 208.004,247.512 208.203,247.562L208.203,251.589C207.99,251.525 207.695,251.468 207.319,251.418C206.942,251.369 206.598,251.344 206.285,251.344C205.618,251.344 205.021,251.489 204.496,251.781C203.977,252.065 203.565,252.462 203.26,252.974C202.961,253.485 202.812,254.075 202.812,254.742L202.812,264L198.274,264Z" style="fill:white;fill-rule:nonzero;"/>
    </g>
    <g transform="matrix(1.34003,0,0,1.34003,721.206,-1.05915e-13)">
        <path d="M817,222.194C817,216.016 811.984,211 805.806,211L578.194,211C572.016,211 567,216.016 567,222.194L567,283.806C567,289.984 572.016,295 578.194,295L805.806,295C811.984,295 817,289.984 817,283.806L817,222.194Z" style="fill:rgb(249,91,82);"/>
    </g>
    <g transform="matrix(1.34003,0,0,1.34003,721.206,-1.05915e-13)">
        <path d="M587.369,264L582.426,264L589.958,242.182L595.902,242.182L603.424,264L598.48,264L593.015,247.168L592.845,247.168L587.369,264ZM587.06,255.424L598.736,255.424L598.736,259.025L587.06,259.025L587.06,255.424ZM611.233,264.266C609.99,264.266 608.864,263.947 607.855,263.308C606.854,262.661 606.059,261.713 605.469,260.463C604.887,259.206 604.595,257.665 604.595,255.839C604.595,253.964 604.897,252.406 605.501,251.163C606.105,249.913 606.907,248.979 607.909,248.361C608.917,247.736 610.022,247.423 611.222,247.423C612.138,247.423 612.902,247.58 613.512,247.892C614.13,248.197 614.627,248.581 615.004,249.043C615.387,249.497 615.679,249.945 615.877,250.385L616.016,250.385L616.016,242.182L620.544,242.182L620.544,264L616.069,264L616.069,261.379L615.877,261.379C615.664,261.834 615.362,262.285 614.972,262.732C614.588,263.173 614.088,263.538 613.47,263.83C612.859,264.121 612.113,264.266 611.233,264.266ZM612.671,260.655C613.402,260.655 614.02,260.456 614.524,260.058C615.036,259.653 615.426,259.089 615.696,258.364C615.973,257.64 616.112,256.791 616.112,255.818C616.112,254.845 615.977,254 615.707,253.283C615.437,252.565 615.046,252.011 614.535,251.621C614.024,251.23 613.402,251.035 612.671,251.035C611.925,251.035 611.296,251.237 610.785,251.642C610.274,252.047 609.887,252.608 609.624,253.325C609.361,254.043 609.23,254.874 609.23,255.818C609.23,256.77 609.361,257.612 609.624,258.343C609.894,259.067 610.281,259.636 610.785,260.048C611.296,260.452 611.925,260.655 612.671,260.655ZM630.305,264.266C629.062,264.266 627.936,263.947 626.928,263.308C625.926,262.661 625.131,261.713 624.541,260.463C623.959,259.206 623.668,257.665 623.668,255.839C623.668,253.964 623.97,252.406 624.573,251.163C625.177,249.913 625.979,248.979 626.981,248.361C627.989,247.736 629.094,247.423 630.294,247.423C631.21,247.423 631.974,247.58 632.585,247.892C633.203,248.197 633.7,248.581 634.076,249.043C634.46,249.497 634.751,249.945 634.95,250.385L635.088,250.385L635.088,242.182L639.616,242.182L639.616,264L635.141,264L635.141,261.379L634.95,261.379C634.737,261.834 634.435,262.285 634.044,262.732C633.661,263.173 633.16,263.538 632.542,263.83C631.931,264.121 631.185,264.266 630.305,264.266ZM631.743,260.655C632.475,260.655 633.092,260.456 633.597,260.058C634.108,259.653 634.499,259.089 634.769,258.364C635.046,257.64 635.184,256.791 635.184,255.818C635.184,254.845 635.049,254 634.779,253.283C634.509,252.565 634.119,252.011 633.607,251.621C633.096,251.23 632.475,251.035 631.743,251.035C630.997,251.035 630.369,251.237 629.857,251.642C629.346,252.047 628.959,252.608 628.696,253.325C628.433,254.043 628.302,254.874 628.302,255.818C628.302,256.77 628.433,257.612 628.696,258.343C628.966,259.067 629.353,259.636 629.857,260.048C630.369,260.452 630.997,260.655 631.743,260.655ZM668.625,242.182L668.625,264L664.641,264L655.149,250.268L654.989,250.268L654.989,264L650.376,264L650.376,242.182L654.424,242.182L663.842,255.903L664.033,255.903L664.033,242.182L668.625,242.182ZM679.809,264.32C678.125,264.32 676.676,263.979 675.462,263.297C674.255,262.608 673.324,261.635 672.671,260.378C672.017,259.114 671.691,257.619 671.691,255.893C671.691,254.21 672.017,252.732 672.671,251.461C673.324,250.19 674.244,249.199 675.43,248.489C676.623,247.778 678.022,247.423 679.627,247.423C680.707,247.423 681.712,247.597 682.642,247.945C683.58,248.286 684.397,248.801 685.093,249.49C685.796,250.179 686.343,251.045 686.733,252.089C687.124,253.126 687.319,254.341 687.319,255.733L687.319,256.979L673.502,256.979L673.502,254.167L683.047,254.167C683.047,253.513 682.905,252.935 682.621,252.43C682.337,251.926 681.943,251.532 681.438,251.248C680.941,250.957 680.362,250.811 679.702,250.811C679.013,250.811 678.402,250.971 677.87,251.29C677.344,251.603 676.932,252.026 676.634,252.558C676.335,253.084 676.183,253.67 676.176,254.316L676.176,256.99C676.176,257.8 676.325,258.499 676.623,259.089C676.929,259.678 677.358,260.133 677.912,260.452C678.466,260.772 679.123,260.932 679.883,260.932C680.387,260.932 680.849,260.861 681.268,260.719C681.687,260.577 682.046,260.364 682.344,260.08C682.642,259.795 682.87,259.447 683.026,259.036L687.223,259.312C687.01,260.321 686.573,261.202 685.913,261.955C685.259,262.7 684.414,263.283 683.377,263.702C682.348,264.114 681.158,264.32 679.809,264.32ZM693.392,264L688.938,247.636L693.53,247.636L696.066,258.631L696.215,258.631L698.857,247.636L703.363,247.636L706.048,258.567L706.186,258.567L708.679,247.636L713.26,247.636L708.818,264L704.013,264L701.201,253.709L700.998,253.709L698.186,264L693.392,264ZM722.71,264L722.71,242.182L731.446,242.182C733.051,242.182 734.389,242.42 735.462,242.896C736.534,243.371 737.34,244.032 737.88,244.877C738.42,245.715 738.69,246.681 738.69,247.775C738.69,248.627 738.519,249.376 738.179,250.023C737.838,250.662 737.369,251.187 736.772,251.599C736.183,252.004 735.508,252.292 734.748,252.462L734.748,252.675C735.579,252.711 736.357,252.945 737.081,253.379C737.813,253.812 738.406,254.419 738.86,255.2C739.315,255.974 739.542,256.898 739.542,257.97C739.542,259.128 739.255,260.161 738.679,261.07C738.111,261.972 737.269,262.686 736.154,263.212C735.039,263.737 733.665,264 732.032,264L722.71,264ZM727.323,260.229L731.083,260.229C732.369,260.229 733.306,259.984 733.896,259.494C734.485,258.996 734.78,258.336 734.78,257.512C734.78,256.908 734.634,256.376 734.343,255.914C734.052,255.452 733.637,255.09 733.097,254.827C732.564,254.565 731.929,254.433 731.19,254.433L727.323,254.433L727.323,260.229ZM727.323,251.312L730.742,251.312C731.375,251.312 731.936,251.202 732.426,250.982C732.923,250.754 733.313,250.435 733.598,250.023C733.889,249.611 734.034,249.117 734.034,248.542C734.034,247.754 733.754,247.118 733.193,246.635C732.639,246.152 731.85,245.911 730.828,245.911L727.323,245.911L727.323,251.312ZM746.997,242.182L746.997,264L742.459,264L742.459,242.182L746.997,242.182ZM758.026,264.32C756.371,264.32 754.94,263.968 753.733,263.265C752.532,262.555 751.605,261.567 750.952,260.303C750.299,259.032 749.972,257.558 749.972,255.882C749.972,254.192 750.299,252.714 750.952,251.45C751.605,250.179 752.532,249.192 753.733,248.489C754.94,247.778 756.371,247.423 758.026,247.423C759.681,247.423 761.108,247.778 762.309,248.489C763.516,249.192 764.446,250.179 765.1,251.45C765.753,252.714 766.08,254.192 766.08,255.882C766.08,257.558 765.753,259.032 765.1,260.303C764.446,261.567 763.516,262.555 762.309,263.265C761.108,263.968 759.681,264.32 758.026,264.32ZM758.047,260.804C758.8,260.804 759.429,260.591 759.933,260.165C760.437,259.732 760.817,259.142 761.073,258.396C761.335,257.651 761.467,256.802 761.467,255.85C761.467,254.898 761.335,254.05 761.073,253.304C760.817,252.558 760.437,251.969 759.933,251.536C759.429,251.102 758.8,250.886 758.047,250.886C757.287,250.886 756.648,251.102 756.13,251.536C755.618,251.969 755.231,252.558 754.968,253.304C754.713,254.05 754.585,254.898 754.585,255.85C754.585,256.802 754.713,257.651 754.968,258.396C755.231,259.142 755.618,259.732 756.13,260.165C756.648,260.591 757.287,260.804 758.047,260.804ZM776.424,264.32C774.748,264.32 773.306,263.964 772.099,263.254C770.899,262.537 769.975,261.543 769.329,260.271C768.69,259 768.37,257.537 768.37,255.882C768.37,254.206 768.693,252.736 769.34,251.472C769.993,250.2 770.92,249.21 772.12,248.499C773.321,247.782 774.748,247.423 776.403,247.423C777.831,247.423 779.081,247.683 780.153,248.201C781.225,248.719 782.074,249.447 782.699,250.385C783.324,251.322 783.669,252.423 783.733,253.688L779.45,253.688C779.329,252.871 779.009,252.214 778.491,251.717C777.98,251.212 777.309,250.96 776.478,250.96C775.774,250.96 775.16,251.152 774.634,251.536C774.116,251.912 773.711,252.462 773.42,253.187C773.129,253.911 772.983,254.788 772.983,255.818C772.983,256.862 773.125,257.75 773.409,258.482C773.701,259.213 774.109,259.771 774.634,260.154C775.16,260.538 775.774,260.729 776.478,260.729C776.996,260.729 777.461,260.623 777.873,260.41C778.292,260.197 778.637,259.888 778.907,259.483C779.184,259.071 779.365,258.577 779.45,258.002L783.733,258.002C783.661,259.252 783.321,260.353 782.71,261.305C782.106,262.249 781.272,262.988 780.206,263.521C779.141,264.053 777.88,264.32 776.424,264.32ZM790.75,259.291L790.761,253.847L791.422,253.847L796.663,247.636L801.873,247.636L794.831,255.861L793.755,255.861L790.75,259.291ZM786.638,264L786.638,242.182L791.177,242.182L791.177,264L786.638,264ZM796.866,264L792.05,256.873L795.076,253.666L802.182,264L796.866,264Z" style="fill:white;fill-rule:nonzero;"/>
    </g>
    <g transform="matrix(1.34003,0,0,1.34003,721.206,-1.05915e-13)">
        <path d="M339.429,242.182L345.117,242.182L351.126,256.841L351.382,256.841L357.39,242.182L363.079,242.182L363.079,264L358.605,264L358.605,249.799L358.424,249.799L352.777,263.893L349.73,263.893L344.084,249.746L343.903,249.746L343.903,264L339.429,264L339.429,242.182ZM374.188,264.32C372.533,264.32 371.102,263.968 369.895,263.265C368.694,262.555 367.767,261.567 367.114,260.303C366.461,259.032 366.134,257.558 366.134,255.882C366.134,254.192 366.461,252.714 367.114,251.45C367.767,250.179 368.694,249.192 369.895,248.489C371.102,247.778 372.533,247.423 374.188,247.423C375.843,247.423 377.27,247.778 378.471,248.489C379.678,249.192 380.608,250.179 381.262,251.45C381.915,252.714 382.242,254.192 382.242,255.882C382.242,257.558 381.915,259.032 381.262,260.303C380.608,261.567 379.678,262.555 378.471,263.265C377.27,263.968 375.843,264.32 374.188,264.32ZM374.209,260.804C374.962,260.804 375.591,260.591 376.095,260.165C376.599,259.732 376.979,259.142 377.235,258.396C377.498,257.651 377.629,256.802 377.629,255.85C377.629,254.898 377.498,254.05 377.235,253.304C376.979,252.558 376.599,251.969 376.095,251.536C375.591,251.102 374.962,250.886 374.209,250.886C373.449,250.886 372.81,251.102 372.292,251.536C371.78,251.969 371.393,252.558 371.13,253.304C370.875,254.05 370.747,254.898 370.747,255.85C370.747,256.802 370.875,257.651 371.13,258.396C371.393,259.142 371.78,259.732 372.292,260.165C372.81,260.591 373.449,260.804 374.209,260.804ZM389.731,254.54L389.731,264L385.193,264L385.193,247.636L389.518,247.636L389.518,250.523L389.71,250.523C390.072,249.572 390.679,248.819 391.532,248.265C392.384,247.704 393.417,247.423 394.632,247.423C395.768,247.423 396.759,247.672 397.604,248.169C398.449,248.666 399.106,249.376 399.575,250.3C400.044,251.216 400.278,252.31 400.278,253.581L400.278,264L395.74,264L395.74,254.391C395.747,253.389 395.491,252.608 394.973,252.047C394.454,251.479 393.741,251.195 392.831,251.195C392.221,251.195 391.681,251.326 391.212,251.589C390.75,251.852 390.388,252.235 390.125,252.739C389.87,253.237 389.738,253.837 389.731,254.54ZM409.885,264.266C408.642,264.266 407.516,263.947 406.508,263.308C405.506,262.661 404.711,261.713 404.121,260.463C403.539,259.206 403.248,257.665 403.248,255.839C403.248,253.964 403.55,252.406 404.153,251.163C404.757,249.913 405.56,248.979 406.561,248.361C407.57,247.736 408.674,247.423 409.874,247.423C410.79,247.423 411.554,247.58 412.165,247.892C412.783,248.197 413.28,248.581 413.656,249.043C414.04,249.497 414.331,249.945 414.53,250.385L414.668,250.385L414.668,242.182L419.196,242.182L419.196,264L414.722,264L414.722,261.379L414.53,261.379C414.317,261.834 414.015,262.285 413.624,262.732C413.241,263.173 412.74,263.538 412.122,263.83C411.511,264.121 410.766,264.266 409.885,264.266ZM411.323,260.655C412.055,260.655 412.672,260.456 413.177,260.058C413.688,259.653 414.079,259.089 414.349,258.364C414.626,257.64 414.764,256.791 414.764,255.818C414.764,254.845 414.629,254 414.359,253.283C414.089,252.565 413.699,252.011 413.187,251.621C412.676,251.23 412.055,251.035 411.323,251.035C410.577,251.035 409.949,251.237 409.437,251.642C408.926,252.047 408.539,252.608 408.276,253.325C408.013,254.043 407.882,254.874 407.882,255.818C407.882,256.77 408.013,257.612 408.276,258.343C408.546,259.067 408.933,259.636 409.437,260.048C409.949,260.452 410.577,260.655 411.323,260.655ZM427.593,264.309C426.549,264.309 425.619,264.128 424.802,263.766C423.986,263.396 423.339,262.853 422.863,262.136C422.395,261.411 422.16,260.509 422.16,259.43C422.16,258.521 422.327,257.757 422.661,257.139C422.995,256.521 423.449,256.024 424.025,255.648C424.6,255.271 425.253,254.987 425.985,254.795C426.723,254.604 427.498,254.469 428.307,254.391C429.259,254.291 430.026,254.199 430.608,254.114C431.191,254.021 431.613,253.886 431.876,253.709C432.139,253.531 432.27,253.268 432.27,252.92L432.27,252.857C432.27,252.182 432.057,251.66 431.631,251.29C431.212,250.921 430.616,250.737 429.841,250.737C429.025,250.737 428.375,250.918 427.892,251.28C427.409,251.635 427.089,252.082 426.933,252.622L422.736,252.281C422.949,251.287 423.368,250.428 423.993,249.703C424.618,248.972 425.424,248.411 426.411,248.02C427.405,247.622 428.556,247.423 429.863,247.423C430.772,247.423 431.642,247.53 432.473,247.743C433.311,247.956 434.053,248.286 434.699,248.734C435.353,249.181 435.868,249.756 436.244,250.46C436.62,251.156 436.809,251.99 436.809,252.963L436.809,264L432.505,264L432.505,261.731L432.377,261.731C432.114,262.242 431.763,262.693 431.322,263.084C430.882,263.467 430.353,263.769 429.735,263.989C429.117,264.202 428.403,264.309 427.593,264.309ZM428.893,261.177C429.561,261.177 430.15,261.045 430.662,260.783C431.173,260.513 431.574,260.151 431.866,259.696C432.157,259.241 432.302,258.727 432.302,258.151L432.302,256.415C432.16,256.507 431.965,256.592 431.716,256.67C431.475,256.741 431.201,256.809 430.896,256.873C430.591,256.93 430.285,256.983 429.98,257.033C429.674,257.075 429.397,257.114 429.149,257.15C428.616,257.228 428.151,257.352 427.753,257.523C427.356,257.693 427.047,257.924 426.826,258.215C426.606,258.499 426.496,258.854 426.496,259.281C426.496,259.898 426.72,260.371 427.167,260.697C427.622,261.017 428.197,261.177 428.893,261.177ZM442.546,270.136C441.97,270.136 441.43,270.09 440.926,269.998C440.429,269.913 440.017,269.803 439.69,269.668L440.713,266.28C441.246,266.443 441.725,266.532 442.151,266.546C442.585,266.56 442.957,266.461 443.27,266.248C443.59,266.035 443.849,265.673 444.048,265.161L444.314,264.469L438.444,247.636L443.217,247.636L446.604,259.653L446.775,259.653L450.195,247.636L454.999,247.636L448.639,265.768C448.334,266.649 447.918,267.416 447.393,268.07C446.874,268.73 446.217,269.238 445.422,269.593C444.627,269.955 443.668,270.136 442.546,270.136ZM473.715,242.182L473.715,264L469.102,264L469.102,246.56L468.974,246.56L463.978,249.692L463.978,245.602L469.379,242.182L473.715,242.182ZM486.869,264.298C485.363,264.298 484.021,264.021 482.842,263.467C481.67,262.913 480.74,262.15 480.051,261.177C479.362,260.204 479.003,259.089 478.975,257.832L483.449,257.832C483.499,258.677 483.854,259.362 484.515,259.888C485.175,260.413 485.96,260.676 486.869,260.676C487.593,260.676 488.233,260.516 488.787,260.197C489.348,259.87 489.785,259.419 490.097,258.844C490.417,258.261 490.576,257.594 490.576,256.841C490.576,256.074 490.413,255.399 490.086,254.817C489.767,254.234 489.323,253.78 488.755,253.453C488.187,253.126 487.537,252.96 486.805,252.952C486.166,252.952 485.544,253.084 484.941,253.347C484.344,253.609 483.879,253.968 483.545,254.423L479.444,253.688L480.477,242.182L493.815,242.182L493.815,245.953L484.28,245.953L483.716,251.418L483.843,251.418C484.227,250.879 484.806,250.431 485.58,250.076C486.354,249.721 487.221,249.543 488.179,249.543C489.493,249.543 490.665,249.852 491.695,250.47C492.725,251.088 493.538,251.937 494.135,253.016C494.731,254.089 495.026,255.325 495.019,256.724C495.026,258.194 494.685,259.501 493.996,260.644C493.314,261.781 492.359,262.675 491.13,263.329C489.909,263.975 488.488,264.298 486.869,264.298Z" style="fill:white;fill-rule:nonzero;"/>
    </g>
    <g transform="matrix(1.34003,0,0,1.34003,721.206,-1.05915e-13)">
        <path d="M417.297,643.276L435.556,643.276" style="fill:none;fill-rule:nonzero;stroke:rgb(255,92,0);stroke-width:4px;"/>
    </g>
    <g transform="matrix(1.34003,0,0,1.34003,721.206,-1.05915e-13)">
        <path d="M417.927,653.979L445.314,653.979" style="fill:none;fill-rule:nonzero;stroke:rgb(255,92,0);stroke-width:4px;"/>
    </g>
    <g transform="matrix(1.34003,0,0,1.34003,721.206,-1.05915e-13)">
        <path d="M416.982,664.682L454.758,664.682" style="fill:none;fill-rule:nonzero;stroke:rgb(255,92,0);stroke-width:4px;"/>
    </g>
    <g transform="matrix(1.34003,0,0,1.34003,721.206,-1.05915e-13)">
        <path d="M417.612,676.33L464.832,676.33" style="fill:none;fill-rule:nonzero;stroke:rgb(255,92,0);stroke-width:4px;"/>
    </g>
    <g transform="matrix(1.34003,0,0,1.34003,721.206,-1.05915e-13)">
        <path d="M419.501,690.181L481.517,690.181" style="fill:none;fill-rule:nonzero;stroke:rgb(255,92,0);stroke-width:4px;"/>
    </g>
    <g transform="matrix(1.34003,0,0,1.34003,721.206,-1.05915e-13)">
        <path d="M418.242,700.57L490.961,700.57" style="fill:none;fill-rule:nonzero;stroke:rgb(255,92,0);stroke-width:4px;"/>
    </g>
    <g transform="matrix(1.34003,0,0,1.34003,721.206,-1.05915e-13)">
        <path d="M417.612,712.217L502.923,712.217" style="fill:none;fill-rule:nonzero;stroke:rgb(255,92,0);stroke-width:4px;"/>
    </g>
    <g transform="matrix(1.34003,0,0,1.34003,721.206,-1.05915e-13)">
        <path d="M417.927,723.235L513.626,723.235" style="fill:none;fill-rule:nonzero;stroke:rgb(255,92,0);stroke-width:4px;"/>
    </g>
    <g transform="matrix(1.34003,0,0,1.34003,721.206,-1.05915e-13)">
        <path d="M417.612,730.791L521.811,730.791" style="fill:none;fill-rule:nonzero;stroke:rgb(255,92,0);stroke-width:4px;"/>
    </g>
    <g transform="matrix(1.34003,0,0,1.34003,721.206,-1.05915e-13)">
        <path d="M417.297,743.698L531.885,743.698" style="fill:none;fill-rule:nonzero;stroke:rgb(255,92,0);stroke-width:4px;"/>
    </g>
    <g transform="matrix(1.34003,0,0,1.34003,721.206,-1.05915e-13)">
        <path d="M418.242,755.03L533.774,755.03" style="fill:none;fill-rule:nonzero;stroke:rgb(255,92,0);stroke-width:4px;"/>
    </g>
    <g transform="matrix(1.34003,0,0,1.34003,721.206,-1.05915e-13)">
        <path d="M419.816,764.16L540.699,764.16" style="fill:none;fill-rule:nonzero;stroke:rgb(255,92,0);stroke-width:4px;"/>
    </g>
    <g transform="matrix(1.34003,0,0,1.34003,721.206,-1.05915e-13)">
        <path d="M431.098,641.078L431.098,776.306" style="fill:none;fill-rule:nonzero;stroke:rgb(255,92,0);stroke-width:4px;"/>
    </g>
    <g transform="matrix(1.34003,0,0,1.34003,721.206,-1.05915e-13)">
        <path d="M444.364,656.055L444.364,766.035" style="fill:none;fill-rule:nonzero;stroke:rgb(255,92,0);stroke-width:4px;"/>
    </g>
    <g transform="matrix(1.34003,0,0,1.34003,721.206,-1.05915e-13)">
        <path d="M459.341,673.173L459.341,775.878" style="fill:none;fill-rule:nonzero;stroke:rgb(255,92,0);stroke-width:4px;"/>
    </g>
    <g transform="matrix(1.34003,0,0,1.34003,721.206,-1.05915e-13)">
        <path d="M471.752,685.155L471.752,768.175" style="fill:none;fill-rule:nonzero;stroke:rgb(255,92,0);stroke-width:4px;"/>
    </g>
    <g transform="matrix(1.34003,0,0,1.34003,721.206,-1.05915e-13)">
        <path d="M483.306,695.854L483.306,766.463" style="fill:none;fill-rule:nonzero;stroke:rgb(255,92,0);stroke-width:4px;"/>
    </g>
    <g transform="matrix(1.34003,0,0,1.34003,721.206,-1.05915e-13)">
        <path d="M495.288,713.827L495.288,769.031" style="fill:none;fill-rule:nonzero;stroke:rgb(255,92,0);stroke-width:4px;"/>
    </g>
    <g transform="matrix(1.34003,0,0,1.34003,721.206,-1.05915e-13)">
        <path d="M509.838,724.526L509.838,767.319" style="fill:none;fill-rule:nonzero;stroke:rgb(255,92,0);stroke-width:4px;"/>
    </g>
    <g transform="matrix(1.34003,0,0,1.34003,721.206,-1.05915e-13)">
        <path d="M523.96,732.228L523.96,769.887" style="fill:none;fill-rule:nonzero;stroke:rgb(255,92,0);stroke-width:4px;"/>
    </g>
    <g transform="matrix(1.34003,0,0,1.34003,721.206,-1.05915e-13)">
        <path d="M416.939,791.061C417.525,791.646 418.475,791.646 419.061,791.061L428.607,781.515C429.192,780.929 429.192,779.979 428.607,779.393C428.021,778.808 427.071,778.808 426.485,779.393L418,787.879L409.515,779.393C408.929,778.808 407.979,778.808 407.393,779.393C406.808,779.979 406.808,780.929 407.393,781.515L416.939,791.061ZM416.5,624L416.5,790L419.5,790L419.5,624L416.5,624Z" style="fill-rule:nonzero;"/>
    </g>
    <g transform="matrix(1.34003,0,0,1.34003,721.206,-1.05915e-13)">
        <path d="M534.111,742.676C534.94,742.676 535.611,742.004 535.611,741.176L535.611,727.676C535.611,726.847 534.94,726.176 534.111,726.176C533.283,726.176 532.611,726.847 532.611,727.676L532.611,739.676L520.611,739.676C519.783,739.676 519.111,740.347 519.111,741.176C519.111,742.004 519.783,742.676 520.611,742.676L534.111,742.676ZM415.105,624.291L533.051,742.236L535.172,740.115L417.227,622.169L415.105,624.291Z" style="fill-rule:nonzero;"/>
    </g>
    <g transform="matrix(1.34003,0,0,1.34003,721.206,-1.05915e-13)">
        <path d="M398.732,598.451L398.732,618.63" style="fill:none;fill-rule:nonzero;stroke:rgb(0,188,41);stroke-width:3px;"/>
    </g>
    <g transform="matrix(1.34003,0,0,1.34003,721.206,-1.05915e-13)">
        <path d="M403.078,602.176L403.078,620.183" style="fill:none;fill-rule:nonzero;stroke:rgb(0,188,41);stroke-width:3px;"/>
    </g>
    <g transform="matrix(1.34003,0,0,1.34003,721.206,-1.05915e-13)">
        <path d="M389.729,581.376L389.729,615.215" style="fill:none;fill-rule:nonzero;stroke:rgb(0,188,41);stroke-width:3px;"/>
    </g>
    <g transform="matrix(1.34003,0,0,1.34003,721.206,-1.05915e-13)">
        <path d="M378.552,567.405L378.552,611.179" style="fill:none;fill-rule:nonzero;stroke:rgb(0,188,41);stroke-width:3px;"/>
    </g>
    <g transform="matrix(1.34003,0,0,1.34003,721.206,-1.05915e-13)">
        <path d="M364.892,539.154L364.892,608.075" style="fill:none;fill-rule:nonzero;stroke:rgb(0,188,41);stroke-width:3px;"/>
    </g>
    <g transform="matrix(1.34003,0,0,1.34003,721.206,-1.05915e-13)">
        <path d="M353.716,526.425L353.716,603.418" style="fill:none;fill-rule:nonzero;stroke:rgb(0,188,41);stroke-width:3px;"/>
    </g>
    <g transform="matrix(1.34003,0,0,1.34003,721.206,-1.05915e-13)">
        <path d="M339.435,494.448L339.435,604.349" style="fill:none;fill-rule:nonzero;stroke:rgb(0,188,41);stroke-width:3px;"/>
    </g>
    <g transform="matrix(1.34003,0,0,1.34003,721.206,-1.05915e-13)">
        <path d="M327.638,488.239L327.638,598.761" style="fill:none;fill-rule:nonzero;stroke:rgb(0,188,41);stroke-width:3px;"/>
    </g>
    <g transform="matrix(1.34003,0,0,1.34003,721.206,-1.05915e-13)">
        <path d="M320.497,478.926L320.497,595.657" style="fill:none;fill-rule:nonzero;stroke:rgb(0,188,41);stroke-width:3px;"/>
    </g>
    <g transform="matrix(1.34003,0,0,1.34003,721.206,-1.05915e-13)">
        <path d="M310.873,480.167L310.873,593.483" style="fill:none;fill-rule:nonzero;stroke:rgb(0,188,41);stroke-width:3px;"/>
    </g>
    <g transform="matrix(1.34003,0,0,1.34003,721.206,-1.05915e-13)">
        <path d="M303.733,484.203L303.733,593.794" style="fill:none;fill-rule:nonzero;stroke:rgb(0,188,41);stroke-width:3px;"/>
    </g>
    <g transform="matrix(1.34003,0,0,1.34003,721.206,-1.05915e-13)">
        <path d="M293.798,492.896L293.798,586.343" style="fill:none;fill-rule:nonzero;stroke:rgb(0,188,41);stroke-width:3px;"/>
    </g>
    <g transform="matrix(1.34003,0,0,1.34003,721.206,-1.05915e-13)">
        <path d="M284.174,508.419L284.174,587.274" style="fill:none;fill-rule:nonzero;stroke:rgb(0,188,41);stroke-width:3px;"/>
    </g>
    <g transform="matrix(1.34003,0,0,1.34003,721.206,-1.05915e-13)">
        <path d="M275.481,506.556L275.481,583.859" style="fill:none;fill-rule:nonzero;stroke:rgb(0,188,41);stroke-width:3px;"/>
    </g>
    <g transform="matrix(1.34003,0,0,1.34003,721.206,-1.05915e-13)">
        <path d="M284.484,496.932L284.484,511.523" style="fill:none;fill-rule:nonzero;stroke:rgb(0,188,41);stroke-width:3px;"/>
    </g>
    <g transform="matrix(1.34003,0,0,1.34003,721.206,-1.05915e-13)">
        <path d="M298.765,491.344L334.468,491.344" style="fill:none;fill-rule:nonzero;stroke:rgb(0,188,41);stroke-width:3px;"/>
    </g>
    <g transform="matrix(1.34003,0,0,1.34003,721.206,-1.05915e-13)">
        <path d="M286.347,496.311L336.33,496.311" style="fill:none;fill-rule:nonzero;stroke:rgb(0,188,41);stroke-width:3px;"/>
    </g>
    <g transform="matrix(1.34003,0,0,1.34003,721.206,-1.05915e-13)">
        <path d="M274.86,507.488L344.092,507.488" style="fill:none;fill-rule:nonzero;stroke:rgb(0,188,41);stroke-width:3px;"/>
    </g>
    <g transform="matrix(1.34003,0,0,1.34003,721.206,-1.05915e-13)">
        <path d="M277.344,518.043L351.853,518.043" style="fill:none;fill-rule:nonzero;stroke:rgb(0,188,41);stroke-width:3px;"/>
    </g>
    <g transform="matrix(1.34003,0,0,1.34003,721.206,-1.05915e-13)">
        <path d="M277.034,528.288L355.579,528.288" style="fill:none;fill-rule:nonzero;stroke:rgb(0,188,41);stroke-width:3px;"/>
    </g>
    <g transform="matrix(1.34003,0,0,1.34003,721.206,-1.05915e-13)">
        <path d="M275.792,545.673L368.618,545.673" style="fill:none;fill-rule:nonzero;stroke:rgb(0,188,41);stroke-width:3px;"/>
    </g>
    <g transform="matrix(1.34003,0,0,1.34003,721.206,-1.05915e-13)">
        <path d="M275.481,556.229L374.206,556.229" style="fill:none;fill-rule:nonzero;stroke:rgb(0,188,41);stroke-width:3px;"/>
    </g>
    <g transform="matrix(1.34003,0,0,1.34003,721.206,-1.05915e-13)">
        <path d="M273.929,569.889L379.794,569.889" style="fill:none;fill-rule:nonzero;stroke:rgb(0,188,41);stroke-width:3px;"/>
    </g>
    <g transform="matrix(1.34003,0,0,1.34003,721.206,-1.05915e-13)">
        <path d="M278.586,578.892L386.624,578.892" style="fill:none;fill-rule:nonzero;stroke:rgb(0,188,41);stroke-width:3px;"/>
    </g>
    <g transform="matrix(1.34003,0,0,1.34003,721.206,-1.05915e-13)">
        <path d="M308.079,591.31L392.212,591.31" style="fill:none;fill-rule:nonzero;stroke:rgb(0,188,41);stroke-width:3px;"/>
    </g>
    <g transform="matrix(1.34003,0,0,1.34003,721.206,-1.05915e-13)">
        <path d="M347.817,603.108L404.32,603.108" style="fill:none;fill-rule:nonzero;stroke:rgb(0,188,41);stroke-width:3px;"/>
    </g>
    <g transform="matrix(1.34003,0,0,1.34003,721.206,-1.05915e-13)">
        <path d="M302.584,597.92L302.584,734.898" style="fill:none;fill-rule:nonzero;stroke:rgb(0,188,41);stroke-width:3px;"/>
    </g>
    <g transform="matrix(1.34003,0,0,1.34003,721.206,-1.05915e-13)">
        <path d="M311.474,607.469L311.474,724.691" style="fill:none;fill-rule:nonzero;stroke:rgb(0,188,41);stroke-width:3px;"/>
    </g>
    <g transform="matrix(1.34003,0,0,1.34003,721.206,-1.05915e-13)">
        <path d="M322.67,600.554L322.67,713.166" style="fill:none;fill-rule:nonzero;stroke:rgb(0,188,41);stroke-width:3px;"/>
    </g>
    <g transform="matrix(1.34003,0,0,1.34003,721.206,-1.05915e-13)">
        <path d="M336.499,640.396L336.499,703.617" style="fill:none;fill-rule:nonzero;stroke:rgb(0,188,41);stroke-width:3px;"/>
    </g>
    <g transform="matrix(1.34003,0,0,1.34003,721.206,-1.05915e-13)">
        <path d="M349.341,609.115L349.341,693.41" style="fill:none;fill-rule:nonzero;stroke:rgb(0,188,41);stroke-width:3px;"/>
    </g>
    <g transform="matrix(1.34003,0,0,1.34003,721.206,-1.05915e-13)">
        <path d="M336.499,604.835L336.499,645.006" style="fill:none;fill-rule:nonzero;stroke:rgb(0,188,41);stroke-width:3px;"/>
    </g>
    <g transform="matrix(1.34003,0,0,1.34003,721.206,-1.05915e-13)">
        <path d="M360.865,610.432L360.865,672.336" style="fill:none;fill-rule:nonzero;stroke:rgb(0,188,41);stroke-width:3px;"/>
    </g>
    <g transform="matrix(1.34003,0,0,1.34003,721.206,-1.05915e-13)">
        <path d="M373.378,616.688L373.378,666.08" style="fill:none;fill-rule:nonzero;stroke:rgb(0,188,41);stroke-width:3px;"/>
    </g>
    <g transform="matrix(1.34003,0,0,1.34003,721.206,-1.05915e-13)">
        <path d="M382.268,619.981L382.268,653.238" style="fill:none;fill-rule:nonzero;stroke:rgb(0,188,41);stroke-width:3px;"/>
    </g>
    <g transform="matrix(1.34003,0,0,1.34003,721.206,-1.05915e-13)">
        <path d="M395.769,620.64L395.769,640.396" style="fill:none;fill-rule:nonzero;stroke:rgb(0,188,41);stroke-width:3px;"/>
    </g>
    <g transform="matrix(1.34003,0,0,1.34003,721.206,-1.05915e-13)">
        <path d="M293.693,720.41L316.084,720.41" style="fill:none;fill-rule:nonzero;stroke:rgb(0,188,41);stroke-width:3px;"/>
    </g>
    <g transform="matrix(1.34003,0,0,1.34003,721.206,-1.05915e-13)">
        <path d="M278.217,709.873L328.267,709.873" style="fill:none;fill-rule:nonzero;stroke:rgb(0,188,41);stroke-width:3px;"/>
    </g>
    <g transform="matrix(1.34003,0,0,1.34003,721.206,-1.05915e-13)">
        <path d="M273.278,694.727L337.816,694.727" style="fill:none;fill-rule:nonzero;stroke:rgb(0,188,41);stroke-width:3px;"/>
    </g>
    <g transform="matrix(1.34003,0,0,1.34003,721.206,-1.05915e-13)">
        <path d="M266.693,677.275L356.914,677.275" style="fill:none;fill-rule:nonzero;stroke:rgb(0,188,41);stroke-width:3px;"/>
    </g>
    <g transform="matrix(1.34003,0,0,1.34003,721.206,-1.05915e-13)">
        <path d="M247.595,665.092L362.512,665.092" style="fill:none;fill-rule:nonzero;stroke:rgb(0,188,41);stroke-width:3px;"/>
    </g>
    <g transform="matrix(1.34003,0,0,1.34003,721.206,-1.05915e-13)">
        <path d="M240.021,654.884L383.585,654.884" style="fill:none;fill-rule:nonzero;stroke:rgb(0,188,41);stroke-width:3px;"/>
    </g>
    <g transform="matrix(1.34003,0,0,1.34003,721.206,-1.05915e-13)">
        <path d="M235.741,642.701L392.147,642.701" style="fill:none;fill-rule:nonzero;stroke:rgb(0,188,41);stroke-width:3px;"/>
    </g>
    <g transform="matrix(1.34003,0,0,1.34003,721.206,-1.05915e-13)">
        <path d="M234.753,630.518L402.684,630.518" style="fill:none;fill-rule:nonzero;stroke:rgb(0,188,41);stroke-width:3px;"/>
    </g>
    <g transform="matrix(1.34003,0,0,1.34003,721.206,-1.05915e-13)">
        <path d="M238.375,620.64L383.915,620.64" style="fill:none;fill-rule:nonzero;stroke:rgb(0,188,41);stroke-width:3px;"/>
    </g>
    <g transform="matrix(1.34003,0,0,1.34003,721.206,-1.05915e-13)">
        <path d="M244.631,613.066L348.024,613.066" style="fill:none;fill-rule:nonzero;stroke:rgb(0,188,41);stroke-width:3px;"/>
    </g>
    <g transform="matrix(1.34003,0,0,1.34003,721.206,-1.05915e-13)">
        <path d="M258.79,602.859L310.486,602.859" style="fill:none;fill-rule:nonzero;stroke:rgb(0,188,41);stroke-width:3px;"/>
    </g>
    <g transform="matrix(1.34003,0,0,1.34003,721.206,-1.05915e-13)">
        <path d="M291.718,608.127L291.718,724.362" style="fill:none;fill-rule:nonzero;stroke:rgb(0,188,41);stroke-width:3px;"/>
    </g>
    <g transform="matrix(1.34003,0,0,1.34003,721.206,-1.05915e-13)">
        <path d="M281.51,595.944L281.51,728.642" style="fill:none;fill-rule:nonzero;stroke:rgb(0,188,41);stroke-width:3px;"/>
    </g>
    <g transform="matrix(1.34003,0,0,1.34003,721.206,-1.05915e-13)">
        <path d="M273.608,599.566L273.608,710.532" style="fill:none;fill-rule:nonzero;stroke:rgb(0,188,41);stroke-width:3px;"/>
    </g>
    <g transform="matrix(1.34003,0,0,1.34003,721.206,-1.05915e-13)">
        <path d="M264.059,599.895L264.059,681.885" style="fill:none;fill-rule:nonzero;stroke:rgb(0,188,41);stroke-width:3px;"/>
    </g>
    <g transform="matrix(1.34003,0,0,1.34003,721.206,-1.05915e-13)">
        <path d="M249.241,610.103L249.241,668.055" style="fill:none;fill-rule:nonzero;stroke:rgb(0,188,41);stroke-width:3px;"/>
    </g>
    <g transform="matrix(1.34003,0,0,1.34003,721.206,-1.05915e-13)">
        <path d="M421.832,605.919L432.325,605.919" style="fill:none;fill-rule:nonzero;stroke:rgb(15,70,152);stroke-width:3px;"/>
    </g>
    <g transform="matrix(1.34003,0,0,1.34003,721.206,-1.05915e-13)">
        <path d="M417.381,601.468L435.505,601.468" style="fill:none;fill-rule:nonzero;stroke:rgb(15,70,152);stroke-width:3px;"/>
    </g>
    <g transform="matrix(1.34003,0,0,1.34003,721.206,-1.05915e-13)">
        <path d="M416.109,593.201L445.997,593.201" style="fill:none;fill-rule:nonzero;stroke:rgb(15,70,152);stroke-width:3px;"/>
    </g>
    <g transform="matrix(1.34003,0,0,1.34003,721.206,-1.05915e-13)">
        <path d="M423.104,583.026L454.264,583.026" style="fill:none;fill-rule:nonzero;stroke:rgb(15,70,152);stroke-width:3px;"/>
    </g>
    <g transform="matrix(1.34003,0,0,1.34003,721.206,-1.05915e-13)">
        <path d="M421.514,576.667L457.126,576.667" style="fill:none;fill-rule:nonzero;stroke:rgb(15,70,152);stroke-width:3px;"/>
    </g>
    <g transform="matrix(1.34003,0,0,1.34003,721.206,-1.05915e-13)">
        <path d="M420.243,566.492L462.531,566.492" style="fill:none;fill-rule:nonzero;stroke:rgb(15,70,152);stroke-width:3px;"/>
    </g>
    <g transform="matrix(1.34003,0,0,1.34003,721.206,-1.05915e-13)">
        <path d="M418.335,554.728L478.747,554.728" style="fill:none;fill-rule:nonzero;stroke:rgb(15,70,152);stroke-width:3px;"/>
    </g>
    <g transform="matrix(1.34003,0,0,1.34003,721.206,-1.05915e-13)">
        <path d="M417.699,544.871L495.917,544.871" style="fill:none;fill-rule:nonzero;stroke:rgb(15,70,152);stroke-width:3px;"/>
    </g>
    <g transform="matrix(1.34003,0,0,1.34003,721.206,-1.05915e-13)">
        <path d="M417.381,535.968L500.368,535.968" style="fill:none;fill-rule:nonzero;stroke:rgb(15,70,152);stroke-width:3px;"/>
    </g>
    <g transform="matrix(1.34003,0,0,1.34003,721.206,-1.05915e-13)">
        <path d="M418.017,527.383L512.769,527.383" style="fill:none;fill-rule:nonzero;stroke:rgb(15,70,152);stroke-width:3px;"/>
    </g>
    <g transform="matrix(1.34003,0,0,1.34003,721.206,-1.05915e-13)">
        <path d="M420.56,515.937L517.22,515.937" style="fill:none;fill-rule:nonzero;stroke:rgb(15,70,152);stroke-width:3px;"/>
    </g>
    <g transform="matrix(1.34003,0,0,1.34003,721.206,-1.05915e-13)">
        <path d="M418.017,508.942L514.995,508.942" style="fill:none;fill-rule:nonzero;stroke:rgb(15,70,152);stroke-width:3px;"/>
    </g>
    <g transform="matrix(1.34003,0,0,1.34003,721.206,-1.05915e-13)">
        <path d="M422.15,496.223L514.359,496.223" style="fill:none;fill-rule:nonzero;stroke:rgb(15,70,152);stroke-width:3px;"/>
    </g>
    <g transform="matrix(1.34003,0,0,1.34003,721.206,-1.05915e-13)">
        <path d="M427.238,486.049L526.123,486.049" style="fill:none;fill-rule:nonzero;stroke:rgb(15,70,152);stroke-width:3px;"/>
    </g>
    <g transform="matrix(1.34003,0,0,1.34003,721.206,-1.05915e-13)">
        <path d="M425.966,480.007L507.681,480.007" style="fill:none;fill-rule:nonzero;stroke:rgb(15,70,152);stroke-width:3px;"/>
    </g>
    <g transform="matrix(1.34003,0,0,1.34003,721.206,-1.05915e-13)">
        <path d="M426.602,471.422L488.604,471.422" style="fill:none;fill-rule:nonzero;stroke:rgb(15,70,152);stroke-width:3px;"/>
    </g>
    <g transform="matrix(1.34003,0,0,1.34003,721.206,-1.05915e-13)">
        <path d="M431.689,462.837L487.65,462.837" style="fill:none;fill-rule:nonzero;stroke:rgb(15,70,152);stroke-width:3px;"/>
    </g>
    <g transform="matrix(1.34003,0,0,1.34003,721.206,-1.05915e-13)">
        <path d="M437.412,455.524L484.47,455.524" style="fill:none;fill-rule:nonzero;stroke:rgb(15,70,152);stroke-width:3px;"/>
    </g>
    <g transform="matrix(1.34003,0,0,1.34003,721.206,-1.05915e-13)">
        <path d="M449.177,447.893L480.337,447.893" style="fill:none;fill-rule:nonzero;stroke:rgb(15,70,152);stroke-width:3px;"/>
    </g>
    <g transform="matrix(1.34003,0,0,1.34003,721.206,-1.05915e-13)">
        <path d="M452.356,440.898L475.885,440.898" style="fill:none;fill-rule:nonzero;stroke:rgb(15,70,152);stroke-width:3px;"/>
    </g>
    <g transform="matrix(1.34003,0,0,1.34003,721.206,-1.05915e-13)">
        <path d="M422.468,475.874L422.468,608.463" style="fill:none;fill-rule:nonzero;stroke:rgb(15,70,152);stroke-width:3px;"/>
    </g>
    <g transform="matrix(1.34003,0,0,1.34003,721.206,-1.05915e-13)">
        <path d="M429.145,547.097L429.145,606.555" style="fill:none;fill-rule:nonzero;stroke:rgb(15,70,152);stroke-width:3px;"/>
    </g>
    <g transform="matrix(1.34003,0,0,1.34003,721.206,-1.05915e-13)">
        <path d="M429.145,489.228L429.145,547.733" style="fill:none;fill-rule:nonzero;stroke:rgb(15,70,152);stroke-width:3px;"/>
    </g>
    <g transform="matrix(1.34003,0,0,1.34003,721.206,-1.05915e-13)">
        <path d="M437.73,450.119L437.73,593.837" style="fill:none;fill-rule:nonzero;stroke:rgb(15,70,152);stroke-width:3px;"/>
    </g>
    <g transform="matrix(1.34003,0,0,1.34003,721.206,-1.05915e-13)">
        <path d="M429.463,463.473L429.463,492.408" style="fill:none;fill-rule:nonzero;stroke:rgb(15,70,152);stroke-width:3px;"/>
    </g>
    <g transform="matrix(1.34003,0,0,1.34003,721.206,-1.05915e-13)">
        <path d="M446.315,440.262L446.315,587.478" style="fill:none;fill-rule:nonzero;stroke:rgb(15,70,152);stroke-width:3px;"/>
    </g>
    <g transform="matrix(1.34003,0,0,1.34003,721.206,-1.05915e-13)">
        <path d="M452.992,463.155L452.992,579.211" style="fill:none;fill-rule:nonzero;stroke:rgb(15,70,152);stroke-width:3px;"/>
    </g>
    <g transform="matrix(1.34003,0,0,1.34003,721.206,-1.05915e-13)">
        <path d="M463.485,453.617L463.485,570.944" style="fill:none;fill-rule:nonzero;stroke:rgb(15,70,152);stroke-width:3px;"/>
    </g>
    <g transform="matrix(1.34003,0,0,1.34003,721.206,-1.05915e-13)">
        <path d="M473.342,440.58L473.342,563.313" style="fill:none;fill-rule:nonzero;stroke:rgb(15,70,152);stroke-width:3px;"/>
    </g>
    <g transform="matrix(1.34003,0,0,1.34003,721.206,-1.05915e-13)">
        <path d="M484.788,445.032L484.788,548.687" style="fill:none;fill-rule:nonzero;stroke:rgb(15,70,152);stroke-width:3px;"/>
    </g>
    <g transform="matrix(1.34003,0,0,1.34003,721.206,-1.05915e-13)">
        <path d="M492.101,471.104L492.101,541.056" style="fill:none;fill-rule:nonzero;stroke:rgb(15,70,152);stroke-width:3px;"/>
    </g>
    <g transform="matrix(1.34003,0,0,1.34003,721.206,-1.05915e-13)">
        <path d="M502.276,475.874L502.276,532.789" style="fill:none;fill-rule:nonzero;stroke:rgb(15,70,152);stroke-width:3px;"/>
    </g>
    <g transform="matrix(1.34003,0,0,1.34003,721.206,-1.05915e-13)">
        <path d="M513.405,476.51L513.405,516.573" style="fill:none;fill-rule:nonzero;stroke:rgb(15,70,152);stroke-width:3px;"/>
    </g>
    <g transform="matrix(1.34003,0,0,1.34003,721.206,-1.05915e-13)">
        <path d="M463.485,441.534L463.485,455.206" style="fill:none;fill-rule:nonzero;stroke:rgb(15,70,152);stroke-width:3px;"/>
    </g>
    <g transform="matrix(1.34003,0,0,1.34003,721.206,-1.05915e-13)">
        <path d="M452.992,440.898L452.992,468.243" style="fill:none;fill-rule:nonzero;stroke:rgb(15,70,152);stroke-width:3px;"/>
    </g>
</svg>
