<?xml version="1.0" encoding="UTF-8" standalone="no"?>
<!DOCTYPE svg PUBLIC "-//W3C//DTD SVG 1.1//EN" "http://www.w3.org/Graphics/SVG/1.1/DTD/svg11.dtd">
<svg width="100%" height="100%" viewBox="0 0 2560 1600" version="1.1" xmlns="http://www.w3.org/2000/svg" xmlns:xlink="http://www.w3.org/1999/xlink" xml:space="preserve" xmlns:serif="http://www.serif.com/" style="fill-rule:evenodd;clip-rule:evenodd;stroke-linejoin:round;stroke-miterlimit:2;">
    <g id="B-final" transform="matrix(1.28,0,0,1.28,-358.4,-224)">
        <g id="right-up-b" transform="matrix(1.5,0,0,1.57895,-438.75,-436.184)">
            <ellipse cx="1195" cy="680" rx="85" ry="95" style="fill:rgb(22,44,200);"/>
        </g>
        <g id="right-down-b" transform="matrix(1.5,0,0,1.57895,-438.75,-111.184)">
            <ellipse cx="1195" cy="680" rx="85" ry="95" style="fill:rgb(22,44,200);"/>
        </g>
        <g id="left-up" transform="matrix(1.83333,0,0,1.59574,-534.583,-447.606)">
            <rect x="880" y="586" width="150" height="188" style="fill:rgb(22,44,200);"/>
        </g>
        <g id="left-down" transform="matrix(1.83333,0,0,1.59574,-534.583,-122.606)">
            <rect x="880" y="586" width="150" height="188" style="fill:rgb(22,44,200);"/>
        </g>
        <g id="right-down-a" transform="matrix(0.866667,0,0,1.59574,453.583,-122.606)">
            <rect x="880" y="586" width="150" height="188" style="fill:rgb(22,44,200);"/>
        </g>
        <g id="right-up-a" transform="matrix(0.866667,0,0,1.59574,453.583,-447.606)">
            <rect x="880" y="586" width="150" height="188" style="fill:rgb(22,44,200);"/>
        </g>
    </g>
</svg>
