<?xml version="1.0" encoding="UTF-8" standalone="no"?>
<!DOCTYPE svg PUBLIC "-//W3C//DTD SVG 1.1//EN" "http://www.w3.org/Graphics/SVG/1.1/DTD/svg11.dtd">
<svg width="100%" height="100%" viewBox="0 0 16 16" version="1.1" xmlns="http://www.w3.org/2000/svg" xmlns:xlink="http://www.w3.org/1999/xlink" xml:space="preserve" xmlns:serif="http://www.serif.com/" style="fill-rule:evenodd;clip-rule:evenodd;stroke-linejoin:round;stroke-miterlimit:2;">
    <g id="orig" transform="matrix(0.0466854,0,0,0.0466854,-106.498,-10.8988)">
        <g id="right-down-b" transform="matrix(0.800858,0,0,0.843008,1534.9,-77.1599)">
            <ellipse cx="1195" cy="680" rx="85" ry="95" style="fill:rgb(1,53,233);"/>
        </g>
        <g id="right-down-a" transform="matrix(0.462718,0,0,0.851977,2011.32,-83.2583)">
            <rect x="880" y="586" width="150" height="188" style="fill:rgb(1,53,233);"/>
        </g>
        <g id="left-down" transform="matrix(0.978826,0,0,0.851977,1483.74,-83.2583)">
            <rect x="880" y="586" width="150" height="188" style="fill:rgb(1,53,233);"/>
        </g>
        <g id="right-up-b" transform="matrix(0.800858,0,0,0.843008,1534.9,-259.708)">
            <ellipse cx="1195" cy="680" rx="85" ry="95" style="fill:rgb(1,53,233);"/>
        </g>
        <g id="right-up-a" transform="matrix(0.462718,0,0,0.851977,2011.32,-265.806)">
            <rect x="880" y="586" width="150" height="188" style="fill:rgb(1,53,233);"/>
        </g>
        <g id="left-up" transform="matrix(0.978826,0,0,0.851977,1483.74,-265.806)">
            <rect x="880" y="586" width="150" height="188" style="fill:rgb(1,53,233);"/>
        </g>
    </g>
</svg>
