<?xml version="1.0" encoding="UTF-8" standalone="no"?>
<!DOCTYPE svg PUBLIC "-//W3C//DTD SVG 1.1//EN" "http://www.w3.org/Graphics/SVG/1.1/DTD/svg11.dtd">
<svg width="100%" height="100%" viewBox="0 0 2560 1600" version="1.1" xmlns="http://www.w3.org/2000/svg" xmlns:xlink="http://www.w3.org/1999/xlink" xml:space="preserve" xmlns:serif="http://www.serif.com/" style="fill-rule:evenodd;clip-rule:evenodd;stroke-linejoin:round;stroke-miterlimit:2;">
    <g transform="matrix(8,0,0,8,-320,-800)">
        <g transform="matrix(0.29985,0,0,0.29985,143.778,100)">
            <rect x="0" y="0" width="375" height="667"/>
        </g>
        <g transform="matrix(0.29985,0,0,0.29985,143.778,100)">
            <circle cx="55.5" cy="325.5" r="36.5" style="fill:rgb(51,51,51);"/>
        </g>
        <g transform="matrix(0.29985,0,0,0.29985,143.778,100)">
            <circle cx="143.5" cy="325.5" r="36.5" style="fill:rgb(51,51,51);"/>
        </g>
        <g transform="matrix(0.29985,0,0,0.29985,143.778,100)">
            <circle cx="231.5" cy="325.5" r="36.5" style="fill:rgb(51,51,51);"/>
        </g>
        <g transform="matrix(0.29985,0,0,0.29985,143.778,100)">
            <circle cx="319.5" cy="325.5" r="36.5" style="fill:rgb(254,160,10);"/>
        </g>
        <g transform="matrix(0.29985,0,0,0.29985,143.778,100)">
            <circle cx="55.5" cy="412.5" r="36.5" style="fill:rgb(51,51,51);"/>
        </g>
        <g transform="matrix(0.29985,0,0,0.29985,143.778,100)">
            <circle cx="143.5" cy="412.5" r="36.5" style="fill:rgb(51,51,51);"/>
        </g>
        <g transform="matrix(0.29985,0,0,0.29985,143.778,100)">
            <circle cx="231.5" cy="412.5" r="36.5" style="fill:rgb(51,51,51);"/>
        </g>
        <g transform="matrix(0.29985,0,0,0.29985,143.778,100)">
            <circle cx="319.5" cy="412.5" r="36.5" style="fill:rgb(254,160,10);"/>
        </g>
        <g transform="matrix(0.29985,0,0,0.29985,143.778,100)">
            <circle cx="55.5" cy="499.5" r="36.5" style="fill:rgb(51,51,51);"/>
        </g>
        <g transform="matrix(0.29985,0,0,0.29985,143.778,100)">
            <circle cx="143.5" cy="499.5" r="36.5" style="fill:rgb(51,51,51);"/>
        </g>
        <g transform="matrix(0.29985,0,0,0.29985,143.778,100)">
            <circle cx="231.5" cy="499.5" r="36.5" style="fill:rgb(51,51,51);"/>
        </g>
        <g transform="matrix(0.29985,0,0,0.29985,143.778,100)">
            <circle cx="319.5" cy="499.5" r="36.5" style="fill:rgb(254,160,10);"/>
        </g>
        <g transform="matrix(0.29985,0,0,0.29985,143.778,100)">
            <circle cx="143.5" cy="238.5" r="36.5" style="fill:rgb(165,165,165);"/>
        </g>
        <g transform="matrix(0.29985,0,0,0.29985,143.778,100)">
            <circle cx="231.5" cy="238.5" r="36.5" style="fill:rgb(165,165,165);"/>
        </g>
        <g transform="matrix(0.29985,0,0,0.29985,143.778,100)">
            <circle cx="319.5" cy="238.5" r="36.5" style="fill:rgb(165,165,165);"/>
        </g>
        <g transform="matrix(0.29985,0,0,0.29985,143.778,100)">
            <circle cx="55.5" cy="586.5" r="36.5" style="fill:rgb(51,51,51);"/>
        </g>
        <g transform="matrix(0.29985,0,0,0.29985,143.778,100)">
            <circle cx="143.5" cy="586.5" r="36.5" style="fill:rgb(51,51,51);"/>
        </g>
        <g transform="matrix(0.29985,0,0,0.29985,143.778,100)">
            <circle cx="231.5" cy="586.5" r="36.5" style="fill:rgb(254,160,10);"/>
        </g>
        <g transform="matrix(0.29985,0,0,0.29985,143.778,100)">
            <circle cx="319.5" cy="586.5" r="36.5" style="fill:rgb(254,160,10);"/>
        </g>
        <g transform="matrix(0.29985,0,0,0.29985,143.778,100)">
            <path d="M329.031,181.875C324.531,181.875 320.688,180.583 317.5,178C314.333,175.396 311.896,171.635 310.188,166.719C308.5,161.802 307.656,155.896 307.656,149C307.656,142.125 308.5,136.24 310.188,131.344C311.896,126.427 314.344,122.667 317.531,120.062C320.74,117.437 324.573,116.125 329.031,116.125C333.49,116.125 337.313,117.437 340.5,120.062C343.708,122.667 346.156,126.427 347.844,131.344C349.552,136.24 350.406,142.125 350.406,149C350.406,155.896 349.552,161.802 347.844,166.719C346.156,171.635 343.719,175.396 340.531,178C337.365,180.583 333.531,181.875 329.031,181.875ZM329.031,176.625C333.969,176.625 337.823,174.219 340.594,169.406C343.365,164.573 344.75,157.771 344.75,149C344.75,143.167 344.115,138.187 342.844,134.062C341.594,129.917 339.792,126.75 337.438,124.562C335.104,122.375 332.302,121.281 329.031,121.281C324.135,121.281 320.292,123.719 317.5,128.594C314.708,133.448 313.313,140.25 313.313,149C313.313,154.833 313.938,159.812 315.188,163.937C316.458,168.062 318.26,171.208 320.594,173.375C322.948,175.542 325.76,176.625 329.031,176.625Z" style="fill:white;fill-rule:nonzero;"/>
        </g>
        <g transform="matrix(0.29985,0,0,0.29985,143.778,100)">
            <path d="M126.679,250L122.952,250L131.327,226.727L135.384,226.727L143.759,250L140.031,250L133.452,230.955L133.27,230.955L126.679,250ZM127.304,240.886L139.395,240.886L139.395,243.841L127.304,243.841L127.304,240.886ZM165.355,234.295L161.81,234.295C161.673,233.538 161.42,232.871 161.048,232.295C160.677,231.72 160.223,231.231 159.685,230.83C159.147,230.428 158.545,230.125 157.878,229.92C157.219,229.716 156.518,229.614 155.776,229.614C154.435,229.614 153.234,229.951 152.173,230.625C151.12,231.299 150.287,232.288 149.673,233.591C149.067,234.894 148.764,236.485 148.764,238.364C148.764,240.258 149.067,241.856 149.673,243.159C150.287,244.462 151.124,245.447 152.185,246.114C153.245,246.78 154.438,247.114 155.764,247.114C156.499,247.114 157.196,247.015 157.855,246.818C158.522,246.614 159.124,246.314 159.662,245.92C160.2,245.527 160.654,245.045 161.026,244.477C161.404,243.902 161.666,243.242 161.81,242.5L165.355,242.511C165.166,243.655 164.798,244.708 164.253,245.67C163.715,246.625 163.022,247.451 162.173,248.148C161.332,248.837 160.37,249.371 159.287,249.75C158.204,250.129 157.022,250.318 155.741,250.318C153.726,250.318 151.931,249.841 150.355,248.886C148.779,247.924 147.537,246.549 146.628,244.761C145.726,242.973 145.276,240.841 145.276,238.364C145.276,235.879 145.73,233.746 146.639,231.966C147.548,230.178 148.791,228.807 150.366,227.852C151.942,226.89 153.734,226.409 155.741,226.409C156.976,226.409 158.128,226.587 159.196,226.943C160.272,227.292 161.238,227.807 162.094,228.489C162.95,229.163 163.658,229.989 164.219,230.966C164.779,231.936 165.158,233.045 165.355,234.295Z" style="fill-rule:nonzero;"/>
        </g>
        <g transform="matrix(0.29985,0,0,0.29985,143.778,100)">
            <path d="M216.25,248.523L216.25,233.159L219.307,233.159L219.307,248.523L216.25,248.523ZM210.102,242.364L210.102,239.307L225.466,239.307L225.466,242.364L210.102,242.364ZM239.585,225.636L232.085,253.5L229.051,253.5L236.551,225.636L239.585,225.636ZM252.756,238.693L252.756,241.636L242.438,241.636L242.438,238.693L252.756,238.693Z" style="fill-rule:nonzero;"/>
        </g>
        <g transform="matrix(0.29985,0,0,0.29985,143.778,100)">
            <path d="M322.886,245.636L322.886,244.409C322.886,243.53 323.068,242.727 323.432,242C323.803,241.265 324.341,240.678 325.045,240.239C325.758,239.792 326.617,239.568 327.625,239.568C328.655,239.568 329.519,239.788 330.216,240.227C330.913,240.667 331.439,241.254 331.795,241.989C332.159,242.723 332.341,243.53 332.341,244.409L332.341,245.636C332.341,246.515 332.159,247.322 331.795,248.057C331.432,248.784 330.898,249.371 330.193,249.818C329.496,250.258 328.64,250.477 327.625,250.477C326.602,250.477 325.739,250.258 325.034,249.818C324.33,249.371 323.795,248.784 323.432,248.057C323.068,247.322 322.886,246.515 322.886,245.636ZM325.534,244.409L325.534,245.636C325.534,246.288 325.689,246.879 326,247.409C326.311,247.939 326.852,248.205 327.625,248.205C328.39,248.205 328.924,247.939 329.227,247.409C329.53,246.879 329.682,246.288 329.682,245.636L329.682,244.409C329.682,243.758 329.534,243.167 329.239,242.636C328.951,242.106 328.413,241.841 327.625,241.841C326.867,241.841 326.33,242.106 326.011,242.636C325.693,243.167 325.534,243.758 325.534,244.409ZM311.182,232.318L311.182,231.091C311.182,230.212 311.364,229.405 311.727,228.67C312.098,227.936 312.636,227.348 313.341,226.909C314.053,226.47 314.913,226.25 315.92,226.25C316.951,226.25 317.814,226.47 318.511,226.909C319.208,227.348 319.735,227.936 320.091,228.67C320.447,229.405 320.625,230.212 320.625,231.091L320.625,232.318C320.625,233.197 320.443,234.004 320.08,234.739C319.723,235.466 319.193,236.053 318.489,236.5C317.792,236.939 316.936,237.159 315.92,237.159C314.89,237.159 314.023,236.939 313.318,236.5C312.621,236.053 312.091,235.466 311.727,234.739C311.364,234.004 311.182,233.197 311.182,232.318ZM313.841,231.091L313.841,232.318C313.841,232.97 313.992,233.561 314.295,234.091C314.606,234.621 315.148,234.886 315.92,234.886C316.678,234.886 317.208,234.621 317.511,234.091C317.822,233.561 317.977,232.97 317.977,232.318L317.977,231.091C317.977,230.439 317.83,229.848 317.534,229.318C317.239,228.788 316.701,228.523 315.92,228.523C315.163,228.523 314.625,228.788 314.307,229.318C313.996,229.848 313.841,230.439 313.841,231.091ZM312.261,250L328.261,226.727L330.977,226.727L314.977,250L312.261,250Z" style="fill-rule:nonzero;"/>
        </g>
        <g transform="matrix(0.29985,0,0,0.29985,143.778,100)">
            <path d="M327.847,326.341L327.847,329.33L312.847,329.33L312.847,326.341L327.847,326.341ZM320.347,336.125C319.71,336.125 319.169,335.905 318.722,335.466C318.282,335.019 318.062,334.477 318.062,333.841C318.062,333.235 318.282,332.712 318.722,332.273C319.169,331.833 319.71,331.614 320.347,331.614C320.953,331.614 321.475,331.833 321.915,332.273C322.354,332.712 322.574,333.235 322.574,333.841C322.574,334.477 322.354,335.019 321.915,335.466C321.475,335.905 320.953,336.125 320.347,336.125ZM320.347,324.068C319.922,324.068 319.536,323.966 319.188,323.761C318.847,323.557 318.574,323.28 318.369,322.932C318.165,322.583 318.062,322.201 318.062,321.784C318.062,321.17 318.282,320.644 318.722,320.205C319.169,319.765 319.71,319.545 320.347,319.545C320.96,319.545 321.483,319.765 321.915,320.205C322.354,320.644 322.574,321.17 322.574,321.784C322.574,322.413 322.354,322.951 321.915,323.398C321.483,323.845 320.96,324.068 320.347,324.068Z" style="fill:white;fill-rule:nonzero;"/>
        </g>
        <g transform="matrix(0.29985,0,0,0.29985,143.778,100)">
            <path d="M316.341,406.545L320.193,413.341L324.08,406.545L327.795,406.545L322.352,415.273L327.841,424L324.125,424L320.193,417.477L316.273,424L312.545,424L317.977,415.273L312.614,406.545L316.341,406.545Z" style="fill:white;fill-rule:nonzero;"/>
        </g>
        <g transform="matrix(0.29985,0,0,0.29985,143.778,100)">
            <rect x="312" y="499.693" width="16" height="2.943" style="fill:white;fill-rule:nonzero;"/>
        </g>
        <g transform="matrix(0.29985,0,0,0.29985,143.778,100)">
            <path d="M231.716,511.318C230.155,511.318 228.761,511.049 227.534,510.511C226.314,509.973 225.348,509.227 224.636,508.273C223.932,507.311 223.553,506.197 223.5,504.932L227.068,504.932C227.114,505.621 227.345,506.22 227.761,506.727C228.186,507.227 228.739,507.614 229.42,507.886C230.102,508.159 230.86,508.295 231.693,508.295C232.61,508.295 233.42,508.136 234.125,507.818C234.837,507.5 235.394,507.057 235.795,506.489C236.197,505.913 236.398,505.25 236.398,504.5C236.398,503.72 236.197,503.034 235.795,502.443C235.402,501.845 234.822,501.375 234.057,501.034C233.299,500.693 232.383,500.523 231.307,500.523L229.341,500.523L229.341,497.659L231.307,497.659C232.17,497.659 232.928,497.504 233.58,497.193C234.239,496.883 234.754,496.451 235.125,495.898C235.496,495.337 235.682,494.682 235.682,493.932C235.682,493.212 235.519,492.587 235.193,492.057C234.875,491.519 234.42,491.098 233.83,490.795C233.246,490.492 232.557,490.341 231.761,490.341C231.004,490.341 230.295,490.481 229.636,490.761C228.985,491.034 228.455,491.428 228.045,491.943C227.636,492.451 227.417,493.061 227.386,493.773L223.989,493.773C224.027,492.515 224.398,491.409 225.102,490.455C225.814,489.5 226.754,488.754 227.92,488.216C229.087,487.678 230.383,487.409 231.807,487.409C233.299,487.409 234.587,487.701 235.67,488.284C236.761,488.86 237.602,489.629 238.193,490.591C238.792,491.553 239.087,492.606 239.08,493.75C239.087,495.053 238.723,496.159 237.989,497.068C237.261,497.977 236.292,498.587 235.08,498.898L235.08,499.08C236.625,499.314 237.822,499.928 238.67,500.92C239.527,501.913 239.951,503.144 239.943,504.614C239.951,505.894 239.595,507.042 238.875,508.057C238.163,509.072 237.189,509.871 235.955,510.455C234.72,511.03 233.307,511.318 231.716,511.318Z" style="fill:white;fill-rule:nonzero;"/>
        </g>
        <g transform="matrix(0.29985,0,0,0.29985,143.778,100)">
            <path d="M232.02,424.318C230.982,424.303 229.959,424.114 228.952,423.75C227.952,423.386 227.043,422.78 226.224,421.932C225.406,421.083 224.751,419.943 224.259,418.511C223.774,417.08 223.531,415.292 223.531,413.148C223.531,411.117 223.732,409.314 224.134,407.739C224.543,406.163 225.13,404.833 225.895,403.75C226.66,402.659 227.584,401.83 228.668,401.261C229.751,400.693 230.967,400.409 232.315,400.409C233.702,400.409 234.933,400.682 236.009,401.227C237.084,401.773 237.955,402.527 238.622,403.489C239.296,404.451 239.724,405.545 239.906,406.773L236.44,406.773C236.205,405.803 235.74,405.011 235.043,404.398C234.346,403.784 233.437,403.477 232.315,403.477C230.611,403.477 229.281,404.22 228.327,405.705C227.38,407.189 226.902,409.254 226.895,411.898L227.065,411.898C227.467,411.239 227.959,410.678 228.543,410.216C229.134,409.746 229.793,409.386 230.52,409.136C231.255,408.879 232.027,408.75 232.838,408.75C234.187,408.75 235.406,409.08 236.497,409.739C237.596,410.39 238.471,411.292 239.122,412.443C239.774,413.595 240.099,414.913 240.099,416.398C240.099,417.883 239.762,419.227 239.088,420.432C238.421,421.636 237.482,422.591 236.27,423.295C235.058,423.992 233.641,424.333 232.02,424.318ZM232.009,421.364C232.902,421.364 233.702,421.144 234.406,420.705C235.111,420.265 235.668,419.674 236.077,418.932C236.486,418.189 236.69,417.36 236.69,416.443C236.69,415.549 236.49,414.735 236.088,414C235.694,413.265 235.149,412.682 234.452,412.25C233.762,411.818 232.974,411.602 232.088,411.602C231.414,411.602 230.789,411.731 230.213,411.989C229.645,412.246 229.145,412.602 228.713,413.057C228.281,413.511 227.94,414.034 227.69,414.625C227.448,415.208 227.327,415.826 227.327,416.477C227.327,417.348 227.527,418.155 227.929,418.898C228.338,419.64 228.895,420.239 229.599,420.693C230.312,421.14 231.115,421.364 232.009,421.364Z" style="fill:white;fill-rule:nonzero;"/>
        </g>
        <g transform="matrix(0.29985,0,0,0.29985,143.778,100)">
            <path d="M231.634,313.409C232.671,313.417 233.694,313.606 234.702,313.977C235.709,314.348 236.618,314.955 237.429,315.795C238.247,316.636 238.899,317.773 239.384,319.205C239.876,320.629 240.126,322.402 240.134,324.523C240.134,326.561 239.929,328.375 239.52,329.966C239.111,331.549 238.524,332.886 237.759,333.977C237.001,335.068 236.08,335.898 234.997,336.466C233.914,337.034 232.694,337.318 231.338,337.318C229.952,337.318 228.721,337.045 227.645,336.5C226.569,335.955 225.694,335.201 225.02,334.239C224.346,333.269 223.925,332.155 223.759,330.898L227.224,330.898C227.452,331.898 227.914,332.708 228.611,333.33C229.315,333.943 230.224,334.25 231.338,334.25C233.043,334.25 234.372,333.508 235.327,332.023C236.281,330.53 236.762,328.447 236.77,325.773L236.588,325.773C236.194,326.424 235.702,326.985 235.111,327.455C234.527,327.924 233.872,328.288 233.145,328.545C232.418,328.803 231.641,328.932 230.815,328.932C229.474,328.932 228.255,328.602 227.156,327.943C226.058,327.284 225.183,326.379 224.531,325.227C223.88,324.076 223.554,322.761 223.554,321.284C223.554,319.814 223.887,318.481 224.554,317.284C225.228,316.087 226.168,315.14 227.372,314.443C228.584,313.739 230.005,313.394 231.634,313.409ZM231.645,316.364C230.759,316.364 229.959,316.583 229.247,317.023C228.543,317.455 227.986,318.042 227.577,318.784C227.168,319.519 226.963,320.337 226.963,321.239C226.963,322.14 227.16,322.958 227.554,323.693C227.955,324.42 228.501,325 229.19,325.432C229.887,325.856 230.683,326.068 231.577,326.068C232.243,326.068 232.865,325.939 233.44,325.682C234.016,325.424 234.52,325.068 234.952,324.614C235.384,324.152 235.721,323.629 235.963,323.045C236.205,322.462 236.327,321.848 236.327,321.205C236.327,320.348 236.122,319.553 235.713,318.818C235.312,318.083 234.759,317.492 234.054,317.045C233.349,316.591 232.546,316.364 231.645,316.364Z" style="fill:white;fill-rule:nonzero;"/>
        </g>
        <g transform="matrix(0.29985,0,0,0.29985,143.778,100)">
            <path d="M136.614,511L136.614,508.455L144.489,500.295C145.33,499.409 146.023,498.633 146.568,497.966C147.121,497.292 147.534,496.652 147.807,496.045C148.08,495.439 148.216,494.795 148.216,494.114C148.216,493.341 148.034,492.674 147.67,492.114C147.307,491.545 146.811,491.11 146.182,490.807C145.553,490.496 144.845,490.341 144.057,490.341C143.223,490.341 142.496,490.511 141.875,490.852C141.254,491.193 140.777,491.674 140.443,492.295C140.11,492.917 139.943,493.644 139.943,494.477L136.591,494.477C136.591,493.061 136.917,491.822 137.568,490.761C138.22,489.701 139.114,488.879 140.25,488.295C141.386,487.705 142.678,487.409 144.125,487.409C145.587,487.409 146.875,487.701 147.989,488.284C149.11,488.86 149.985,489.648 150.614,490.648C151.242,491.64 151.557,492.761 151.557,494.011C151.557,494.875 151.394,495.72 151.068,496.545C150.75,497.371 150.193,498.292 149.398,499.307C148.602,500.314 147.496,501.538 146.08,502.977L141.455,507.818L141.455,507.989L151.932,507.989L151.932,511L136.614,511Z" style="fill:white;fill-rule:nonzero;"/>
        </g>
        <g transform="matrix(0.29985,0,0,0.29985,143.778,100)">
            <path d="M144.077,424.318C142.652,424.318 141.372,424.045 140.236,423.5C139.107,422.947 138.205,422.189 137.531,421.227C136.857,420.265 136.497,419.167 136.452,417.932L139.861,417.932C139.944,418.932 140.387,419.754 141.19,420.398C141.993,421.042 142.955,421.364 144.077,421.364C144.971,421.364 145.762,421.159 146.452,420.75C147.149,420.333 147.694,419.761 148.088,419.034C148.49,418.307 148.69,417.477 148.69,416.545C148.69,415.598 148.486,414.754 148.077,414.011C147.668,413.269 147.103,412.686 146.384,412.261C145.671,411.837 144.853,411.621 143.929,411.614C143.224,411.614 142.516,411.735 141.804,411.977C141.092,412.22 140.516,412.538 140.077,412.932L136.861,412.455L138.168,400.727L150.963,400.727L150.963,403.739L141.088,403.739L140.349,410.25L140.486,410.25C140.94,409.811 141.543,409.443 142.293,409.148C143.05,408.852 143.861,408.705 144.724,408.705C146.141,408.705 147.402,409.042 148.509,409.716C149.622,410.39 150.497,411.311 151.134,412.477C151.777,413.636 152.096,414.97 152.088,416.477C152.096,417.985 151.755,419.33 151.065,420.511C150.384,421.693 149.437,422.625 148.224,423.307C147.02,423.981 145.637,424.318 144.077,424.318Z" style="fill:white;fill-rule:nonzero;"/>
        </g>
        <g transform="matrix(0.29985,0,0,0.29985,143.778,100)">
            <path d="M143.884,337.318C142.255,337.318 140.815,337.038 139.565,336.477C138.323,335.917 137.349,335.144 136.645,334.159C135.94,333.174 135.592,332.053 135.599,330.795C135.592,329.811 135.793,328.905 136.202,328.08C136.618,327.246 137.183,326.553 137.895,326C138.607,325.439 139.402,325.083 140.281,324.932L140.281,324.795C139.122,324.515 138.194,323.894 137.497,322.932C136.8,321.97 136.455,320.864 136.463,319.614C136.455,318.424 136.77,317.364 137.406,316.432C138.05,315.492 138.933,314.754 140.054,314.216C141.175,313.678 142.452,313.409 143.884,313.409C145.3,313.409 146.565,313.682 147.679,314.227C148.8,314.765 149.683,315.504 150.327,316.443C150.971,317.375 151.296,318.432 151.304,319.614C151.296,320.864 150.94,321.97 150.236,322.932C149.531,323.894 148.615,324.515 147.486,324.795L147.486,324.932C148.357,325.083 149.141,325.439 149.838,326C150.543,326.553 151.103,327.246 151.52,328.08C151.944,328.905 152.16,329.811 152.168,330.795C152.16,332.053 151.804,333.174 151.099,334.159C150.395,335.144 149.418,335.917 148.168,336.477C146.925,337.038 145.497,337.318 143.884,337.318ZM143.884,334.443C144.846,334.443 145.679,334.284 146.384,333.966C147.088,333.64 147.634,333.189 148.02,332.614C148.406,332.03 148.603,331.348 148.611,330.568C148.603,329.758 148.391,329.042 147.974,328.42C147.565,327.799 147.009,327.311 146.304,326.955C145.599,326.598 144.793,326.42 143.884,326.42C142.967,326.42 142.152,326.598 141.44,326.955C140.728,327.311 140.168,327.799 139.759,328.42C139.349,329.042 139.149,329.758 139.156,330.568C139.149,331.348 139.334,332.03 139.713,332.614C140.099,333.189 140.649,333.64 141.361,333.966C142.073,334.284 142.914,334.443 143.884,334.443ZM143.884,323.614C144.656,323.614 145.342,323.458 145.94,323.148C146.539,322.837 147.009,322.405 147.349,321.852C147.698,321.299 147.876,320.652 147.884,319.909C147.876,319.182 147.702,318.545 147.361,318C147.027,317.455 146.562,317.034 145.963,316.739C145.365,316.436 144.671,316.284 143.884,316.284C143.08,316.284 142.376,316.436 141.77,316.739C141.171,317.034 140.705,317.455 140.372,318C140.039,318.545 139.876,319.182 139.884,319.909C139.876,320.652 140.043,321.299 140.384,321.852C140.724,322.405 141.194,322.837 141.793,323.148C142.399,323.458 143.096,323.614 143.884,323.614Z" style="fill:white;fill-rule:nonzero;"/>
        </g>
        <g transform="matrix(0.29985,0,0,0.29985,143.778,100)">
            <path d="M60.943,487.727L60.943,511L57.42,511L57.42,491.25L57.284,491.25L51.716,494.886L51.716,491.523L57.523,487.727L60.943,487.727Z" style="fill:white;fill-rule:nonzero;"/>
        </g>
        <g transform="matrix(0.29985,0,0,0.29985,143.778,100)">
            <path d="M45.813,419.455L45.813,416.614L55.869,400.727L58.108,400.727L58.108,404.909L56.688,404.909L49.494,416.295L49.494,416.477L63.278,416.477L63.278,419.455L45.813,419.455ZM56.847,424L56.847,418.591L56.869,417.295L56.869,400.727L60.199,400.727L60.199,424L56.847,424Z" style="fill:white;fill-rule:nonzero;"/>
        </g>
        <g transform="matrix(0.29985,0,0,0.29985,143.778,100)">
            <path d="M49.492,337L59.651,316.909L59.651,316.739L47.901,316.739L47.901,313.727L63.287,313.727L63.287,316.841L53.162,337L49.492,337Z" style="fill:white;fill-rule:nonzero;"/>
        </g>
        <g transform="matrix(0.29985,0,0,0.29985,143.778,100)">
            <path d="M318.812,596.523L318.812,581.159L321.869,581.159L321.869,596.523L318.812,596.523ZM312.665,590.364L312.665,587.307L328.028,587.307L328.028,590.364L312.665,590.364Z" style="fill:white;fill-rule:nonzero;"/>
        </g>
        <g transform="matrix(0.29985,0,0,0.29985,143.778,100)">
            <path d="M57.685,598.386C55.889,598.379 54.355,597.905 53.082,596.966C51.81,596.027 50.836,594.659 50.162,592.864C49.488,591.068 49.151,588.905 49.151,586.375C49.151,583.852 49.488,581.697 50.162,579.909C50.844,578.121 51.821,576.758 53.094,575.818C54.374,574.879 55.904,574.409 57.685,574.409C59.465,574.409 60.992,574.883 62.264,575.83C63.537,576.769 64.51,578.133 65.185,579.92C65.867,581.701 66.207,583.852 66.207,586.375C66.207,588.913 65.87,591.08 65.196,592.875C64.522,594.663 63.548,596.03 62.276,596.977C61.003,597.917 59.472,598.386 57.685,598.386ZM57.685,595.352C59.26,595.352 60.492,594.583 61.378,593.045C62.272,591.508 62.719,589.284 62.719,586.375C62.719,584.443 62.514,582.811 62.105,581.477C61.704,580.136 61.124,579.121 60.367,578.432C59.617,577.735 58.722,577.386 57.685,577.386C56.117,577.386 54.885,578.159 53.992,579.705C53.097,581.25 52.647,583.473 52.639,586.375C52.639,588.314 52.84,589.955 53.242,591.295C53.651,592.629 54.23,593.64 54.98,594.33C55.73,595.011 56.632,595.352 57.685,595.352Z" style="fill:white;fill-rule:nonzero;"/>
        </g>
        <g transform="matrix(0.29985,0,0,0.29985,143.778,100)">
            <path d="M143.46,598.216C142.839,598.216 142.305,597.996 141.858,597.557C141.411,597.11 141.188,596.572 141.188,595.943C141.188,595.322 141.411,594.792 141.858,594.352C142.305,593.905 142.839,593.682 143.46,593.682C144.081,593.682 144.616,593.905 145.062,594.352C145.509,594.792 145.733,595.322 145.733,595.943C145.733,596.36 145.627,596.742 145.415,597.091C145.21,597.432 144.938,597.705 144.597,597.909C144.256,598.114 143.877,598.216 143.46,598.216Z" style="fill:white;fill-rule:nonzero;"/>
        </g>
        <g transform="matrix(0.29985,0,0,0.29985,143.778,100)">
            <path d="M224.062,586.83L224.062,583.841L238.619,583.841L238.619,586.83L224.062,586.83ZM224.062,593.83L224.062,590.841L238.619,590.841L238.619,593.83L224.062,593.83Z" style="fill:white;fill-rule:nonzero;"/>
        </g>
        <g transform="matrix(0.29985,0,0,0.29985,143.778,100)">
            <circle cx="55.5" cy="238.5" r="36.5" style="fill:rgb(165,165,165);"/>
        </g>
        <g transform="matrix(0.29985,0,0,0.29985,143.778,100)">
            <path d="M56.531,220.125C46.374,220.125 38.167,228.353 38.167,238.5L32.042,238.5L39.994,246.452L40.137,246.748L48.375,238.5L42.25,238.5C42.25,230.609 48.651,224.208 56.542,224.208C64.433,224.208 70.833,230.609 70.833,238.5C70.833,246.391 64.433,252.792 56.542,252.792C52.591,252.792 49.028,251.179 46.446,248.596L43.557,251.485C46.874,254.813 51.458,256.875 56.531,256.875C66.689,256.875 74.917,248.647 74.917,238.5C74.917,228.353 66.689,220.125 56.531,220.125ZM54.5,230.333L54.5,240.542L63.238,245.728L64.708,243.247L57.563,239.01L57.563,230.333L54.5,230.333Z" style="fill-opacity:0.9;fill-rule:nonzero;"/>
        </g>
    </g>
</svg>
