<?xml version="1.0" encoding="UTF-8" standalone="no"?>
<!DOCTYPE svg PUBLIC "-//W3C//DTD SVG 1.1//EN" "http://www.w3.org/Graphics/SVG/1.1/DTD/svg11.dtd">
<svg width="100%" height="100%" viewBox="0 0 2560 1600" version="1.1" xmlns="http://www.w3.org/2000/svg" xmlns:xlink="http://www.w3.org/1999/xlink" xml:space="preserve" xmlns:serif="http://www.serif.com/" style="fill-rule:evenodd;clip-rule:evenodd;stroke-linejoin:round;stroke-miterlimit:2;">
    <g id="orig" transform="matrix(1,0,0,1,-1022.4,400)">
        <g id="right-down-b" transform="matrix(1.92,0,0,2.02105,102.4,-766.316)">
            <ellipse cx="1195" cy="680" rx="85" ry="95" style="fill:rgb(1,53,233);"/>
        </g>
        <g id="right-down-a" transform="matrix(1.10933,0,0,2.04255,1244.59,-780.936)">
            <rect x="880" y="586" width="150" height="188" style="fill:rgb(1,53,233);"/>
        </g>
        <g id="left-down" transform="matrix(2.34667,0,0,2.04255,-20.2667,-780.936)">
            <rect x="880" y="586" width="150" height="188" style="fill:rgb(1,53,233);"/>
        </g>
        <g id="right-up-b" transform="matrix(1.92,0,0,2.02105,102.4,-1182.32)">
            <ellipse cx="1195" cy="680" rx="85" ry="95" style="fill:rgb(1,53,233);"/>
        </g>
        <g id="right-up-a" transform="matrix(1.10933,0,0,2.04255,1244.59,-1196.94)">
            <rect x="880" y="586" width="150" height="188" style="fill:rgb(1,53,233);"/>
        </g>
        <g id="left-up" transform="matrix(2.34667,0,0,2.04255,-20.2667,-1196.94)">
            <rect x="880" y="586" width="150" height="188" style="fill:rgb(1,53,233);"/>
        </g>
    </g>
</svg>
