<?xml version="1.0" encoding="UTF-8" standalone="no"?>
<!DOCTYPE svg PUBLIC "-//W3C//DTD SVG 1.1//EN" "http://www.w3.org/Graphics/SVG/1.1/DTD/svg11.dtd">
<svg width="100%" height="100%" viewBox="0 0 1000 1000" version="1.1" xmlns="http://www.w3.org/2000/svg" xmlns:xlink="http://www.w3.org/1999/xlink" xml:space="preserve" xmlns:serif="http://www.serif.com/" style="fill-rule:evenodd;clip-rule:evenodd;stroke-linejoin:round;stroke-miterlimit:2;">
    <path d="M576.103,144.908C513.231,144.908 417.956,130.346 363.073,162.424C303.84,197.044 254.639,273.278 230.37,335.624C201.488,409.822 158.176,495.025 169.746,577.654C174.353,610.552 217.317,644.967 240.957,665.29C323.902,736.599 419.656,774.033 528.283,782.393C728.727,797.818 871.811,590.832 837.356,402.144C833.82,382.782 826.476,363.448 821.547,344.375C811.517,305.56 799.801,265.952 774.824,233.936C747.922,199.454 668.148,147.684 621.112,147.684C605.095,147.684 588.925,143.969 572.804,143.969C572.335,143.969 566.255,143.573 566.234,144.363" style="fill:rgb(42,144,249);"/>
    <path d="M561.186,119.686C525.459,118.72 482.238,115.028 442.156,117.446C407.716,119.524 375.477,126.217 350.458,140.84C286.764,178.067 233.169,259.514 207.073,326.556C176.741,404.477 132.837,494.346 144.988,581.121C147.397,598.326 157.074,616.231 170.704,632.764C187.293,652.885 209.613,671.313 224.659,684.248C311.767,759.134 412.287,798.54 526.364,807.319C742.988,823.99 899.186,601.572 861.949,397.653C858.307,377.708 850.829,357.768 845.752,338.12C834.873,296.018 821.627,253.285 794.535,218.558C776.793,195.818 738.409,165.871 699.15,145.844C671.356,131.666 643.073,122.684 621.112,122.684C605.095,122.684 588.925,118.969 572.804,118.969C572.936,118.969 573.604,118.982 573.604,118.982C573.604,118.982 567.124,118.81 564.412,119.124C563.259,119.257 562.182,119.45 561.186,119.686ZM581.595,169.295C579.83,169.699 577.991,169.908 576.103,169.908C538.808,169.908 489.982,164.652 445.168,167.356C419.166,168.924 394.577,172.968 375.688,184.008C320.915,216.021 276.109,287.042 253.667,344.693C226.233,415.171 183.514,495.701 194.505,574.187C195.781,583.306 202.059,592.195 209.284,600.958C223.972,618.774 243.933,634.88 257.255,646.333C336.038,714.063 427.025,749.526 530.201,757.466C714.469,771.647 844.437,580.096 812.763,406.635C809.333,387.856 802.122,369.128 797.342,350.63C788.161,315.101 777.976,278.619 755.113,249.314C740.572,230.676 708.607,206.798 676.43,190.384C656.599,180.268 636.781,172.684 621.112,172.684C608.005,172.684 594.796,170.196 581.595,169.295Z" style="fill:rgb(21,49,79);"/>
</svg>
