<?xml version="1.0" encoding="UTF-8" standalone="no"?>
<!DOCTYPE svg PUBLIC "-//W3C//DTD SVG 1.1//EN" "http://www.w3.org/Graphics/SVG/1.1/DTD/svg11.dtd">
<svg width="100%" height="100%" viewBox="0 0 37 37" version="1.1" xmlns="http://www.w3.org/2000/svg" xmlns:xlink="http://www.w3.org/1999/xlink" xml:space="preserve" xmlns:serif="http://www.serif.com/" style="fill-rule:evenodd;clip-rule:evenodd;">
    <path d="M18.5,36C28.165,36 36,28.165 36,18.5C36,8.835 28.165,1 18.5,1C8.835,1 1,8.835 1,18.5C1,28.165 8.835,36 18.5,36Z" style="fill:none;stroke:white;stroke-opacity:0.1;stroke-width:1.5px;"/>
    <path d="M22.333,14.667C23.659,14.667 24.931,15.194 25.869,16.131C26.807,17.069 27.333,18.341 27.333,19.667L27.333,25.5L24,25.5L24,19.667C24,19.225 23.824,18.801 23.512,18.488C23.199,18.176 22.775,18 22.333,18C21.891,18 21.467,18.176 21.155,18.488C20.842,18.801 20.667,19.225 20.667,19.667L20.667,25.5L17.333,25.5L17.333,19.667C17.333,18.341 17.86,17.069 18.798,16.131C19.735,15.194 21.007,14.667 22.333,14.667Z" style="fill:white;fill-rule:nonzero;"/>
    <rect x="10.667" y="15.5" width="3.333" height="10" style="fill:white;fill-rule:nonzero;"/>
    <path d="M12.333,13C13.254,13 14,12.254 14,11.333C14,10.413 13.254,9.667 12.333,9.667C11.413,9.667 10.667,10.413 10.667,11.333C10.667,12.254 11.413,13 12.333,13Z" style="fill:white;fill-rule:nonzero;"/>
</svg>
