<?xml version="1.0" encoding="UTF-8" standalone="no"?>
<!DOCTYPE svg PUBLIC "-//W3C//DTD SVG 1.1//EN" "http://www.w3.org/Graphics/SVG/1.1/DTD/svg11.dtd">
<svg width="100%" height="100%" viewBox="0 0 60 60" version="1.1" xmlns="http://www.w3.org/2000/svg" xmlns:xlink="http://www.w3.org/1999/xlink" xml:space="preserve" xmlns:serif="http://www.serif.com/" style="fill-rule:evenodd;clip-rule:evenodd;stroke-linejoin:round;stroke-miterlimit:2;">
    <g transform="matrix(1,0,0,1,30,30)">
        <g transform="matrix(1,0,0,1,-30,-30)">
            <path d="M60,30C60,13.443 46.557,0 30,0C13.443,0 0,13.443 0,30C0,46.557 13.443,60 30,60C46.557,60 60,46.557 60,30Z" style="fill:rgb(239,243,253);"/>
            <path d="M25.551,39L25.551,36.716L31.611,30.776C32.19,30.19 32.673,29.671 33.06,29.216C33.446,28.761 33.736,28.321 33.929,27.895C34.122,27.469 34.219,27.014 34.219,26.531C34.219,25.98 34.094,25.509 33.844,25.116C33.594,24.719 33.25,24.412 32.813,24.196C32.375,23.98 31.878,23.872 31.321,23.872C30.747,23.872 30.244,23.991 29.813,24.23C29.381,24.463 29.046,24.796 28.807,25.227C28.574,25.659 28.457,26.173 28.457,26.77L25.449,26.77C25.449,25.662 25.702,24.699 26.207,23.881C26.713,23.063 27.409,22.429 28.296,21.98C29.188,21.531 30.21,21.307 31.364,21.307C32.534,21.307 33.563,21.526 34.449,21.963C35.335,22.401 36.023,23 36.511,23.761C37.006,24.523 37.253,25.392 37.253,26.369C37.253,27.023 37.128,27.665 36.878,28.296C36.628,28.926 36.188,29.625 35.557,30.392C34.932,31.159 34.054,32.088 32.923,33.179L29.915,36.239L29.915,36.358L37.517,36.358L37.517,39L25.551,39Z" style="fill:rgb(40,81,227);fill-rule:nonzero;"/>
        </g>
    </g>
</svg>
