<?xml version="1.0" encoding="UTF-8" standalone="no"?>
<!DOCTYPE svg PUBLIC "-//W3C//DTD SVG 1.1//EN" "http://www.w3.org/Graphics/SVG/1.1/DTD/svg11.dtd">
<svg width="100%" height="100%" viewBox="0 0 60 60" version="1.1" xmlns="http://www.w3.org/2000/svg" xmlns:xlink="http://www.w3.org/1999/xlink" xml:space="preserve" xmlns:serif="http://www.serif.com/" style="fill-rule:evenodd;clip-rule:evenodd;stroke-linejoin:round;stroke-miterlimit:2;">
    <g transform="matrix(1,0,0,1,30,30)">
        <g transform="matrix(1,0,0,1,-30,-30)">
            <path d="M60,30C60,13.443 46.557,0 30,0C13.443,0 0,13.443 0,30C0,46.557 13.443,60 30,60C46.557,60 60,46.557 60,30Z" style="fill:rgb(239,243,253);"/>
            <path d="M25.236,35.761L25.236,33.247L32.642,21.546L34.739,21.546L34.739,25.125L33.46,25.125L28.474,33.026L28.474,33.162L38.813,33.162L38.813,35.761L25.236,35.761ZM33.563,39L33.563,34.994L33.597,33.869L33.597,21.546L36.58,21.546L36.58,39L33.563,39Z" style="fill:rgb(40,81,227);fill-rule:nonzero;"/>
        </g>
    </g>
</svg>
