<?xml version="1.0" encoding="UTF-8" standalone="no"?>
<!DOCTYPE svg PUBLIC "-//W3C//DTD SVG 1.1//EN" "http://www.w3.org/Graphics/SVG/1.1/DTD/svg11.dtd">
<svg width="100%" height="100%" viewBox="0 0 60 60" version="1.1" xmlns="http://www.w3.org/2000/svg" xmlns:xlink="http://www.w3.org/1999/xlink" xml:space="preserve" xmlns:serif="http://www.serif.com/" style="fill-rule:evenodd;clip-rule:evenodd;stroke-linejoin:round;stroke-miterlimit:2;">
    <g transform="matrix(1,0,0,1,30,30)">
        <g transform="matrix(1,0,0,1,-30,-30)">
            <path d="M60,30C60,13.443 46.557,0 30,0C13.443,0 0,13.443 0,30C0,46.557 13.443,60 30,60C46.557,60 60,46.557 60,30Z" style="fill:rgb(239,243,253);"/>
            <path d="M31.619,39.239C30.483,39.239 29.466,39.026 28.568,38.599C27.671,38.168 26.957,37.577 26.429,36.827C25.906,36.077 25.628,35.219 25.594,34.253L28.662,34.253C28.719,34.969 29.028,35.554 29.591,36.009C30.153,36.457 30.83,36.682 31.619,36.682C32.239,36.682 32.79,36.54 33.273,36.256C33.756,35.972 34.136,35.577 34.415,35.071C34.693,34.565 34.83,33.989 34.824,33.341C34.83,32.682 34.69,32.097 34.406,31.585C34.122,31.074 33.733,30.673 33.239,30.384C32.744,30.088 32.176,29.94 31.534,29.94C31.011,29.935 30.497,30.031 29.991,30.23C29.486,30.429 29.085,30.69 28.79,31.014L25.935,30.546L26.847,21.546L36.972,21.546L36.972,24.188L29.463,24.188L28.96,28.815L29.063,28.815C29.386,28.435 29.844,28.119 30.435,27.869C31.026,27.614 31.673,27.486 32.378,27.486C33.435,27.486 34.378,27.736 35.207,28.236C36.037,28.73 36.69,29.412 37.168,30.281C37.645,31.151 37.884,32.145 37.884,33.264C37.884,34.418 37.617,35.446 37.082,36.349C36.554,37.247 35.818,37.955 34.875,38.472C33.938,38.983 32.852,39.239 31.619,39.239Z" style="fill:rgb(40,81,227);fill-rule:nonzero;"/>
        </g>
    </g>
</svg>
