<?xml version="1.0" encoding="UTF-8" standalone="no"?>
<!DOCTYPE svg PUBLIC "-//W3C//DTD SVG 1.1//EN" "http://www.w3.org/Graphics/SVG/1.1/DTD/svg11.dtd">
<svg width="100%" height="100%" viewBox="0 0 37 37" version="1.1" xmlns="http://www.w3.org/2000/svg" xmlns:xlink="http://www.w3.org/1999/xlink" xml:space="preserve" xmlns:serif="http://www.serif.com/" style="fill-rule:evenodd;clip-rule:evenodd;">
    <path d="M18.5,36C28.165,36 36,28.165 36,18.5C36,8.835 28.165,1 18.5,1C8.835,1 1,8.835 1,18.5C1,28.165 8.835,36 18.5,36Z" style="fill:none;stroke:white;stroke-opacity:0.1;stroke-width:1.5px;"/>
    <path d="M24,9.667L21.5,9.667C20.395,9.667 19.335,10.106 18.554,10.887C17.772,11.669 17.333,12.728 17.333,13.833L17.333,16.333L14.833,16.333L14.833,19.667L17.333,19.667L17.333,26.333L20.667,26.333L20.667,19.667L23.167,19.667L24,16.333L20.667,16.333L20.667,13.833C20.667,13.612 20.754,13.4 20.911,13.244C21.067,13.088 21.279,13 21.5,13L24,13L24,9.667Z" style="fill:white;fill-rule:nonzero;"/>
</svg>
