<?xml version="1.0" encoding="UTF-8" standalone="no"?>
<!DOCTYPE svg PUBLIC "-//W3C//DTD SVG 1.1//EN" "http://www.w3.org/Graphics/SVG/1.1/DTD/svg11.dtd">
<svg width="100%" height="100%" viewBox="0 0 140 20" version="1.1" xmlns="http://www.w3.org/2000/svg" xmlns:xlink="http://www.w3.org/1999/xlink" xml:space="preserve" xmlns:serif="http://www.serif.com/" style="fill-rule:evenodd;clip-rule:evenodd;stroke-linejoin:round;stroke-miterlimit:2;">
    <g transform="matrix(1,0,0,1.05152,0,-3.55271e-15)">
        <path d="M10,0L13.09,6.26L20,7.27L15,12.14L16.18,19.02L10,15.77L3.82,19.02L5,12.14L0,7.27L6.91,6.26L10,0Z" style="fill:rgb(50,97,233);fill-rule:nonzero;"/>
    </g>
    <g transform="matrix(1,0,0,1.05152,30.0234,-3.55271e-15)">
        <path d="M10,0L13.09,6.26L20,7.27L15,12.14L16.18,19.02L10,15.77L3.82,19.02L5,12.14L0,7.27L6.91,6.26L10,0Z" style="fill:rgb(50,97,233);fill-rule:nonzero;"/>
    </g>
    <g transform="matrix(1,0,0,1.05152,60.0184,-3.55271e-15)">
        <path d="M10,0L13.09,6.26L20,7.27L15,12.14L16.18,19.02L10,15.77L3.82,19.02L5,12.14L0,7.27L6.91,6.26L10,0Z" style="fill:rgb(50,97,233);fill-rule:nonzero;"/>
    </g>
    <g transform="matrix(1,0,0,1.05152,90.0133,-3.55271e-15)">
        <path d="M10,0L13.09,6.26L20,7.27L15,12.14L16.18,19.02L10,15.77L3.82,19.02L5,12.14L0,7.27L6.91,6.26L10,0Z" style="fill:rgb(50,97,233);fill-rule:nonzero;"/>
    </g>
    <g transform="matrix(1,0,0,1.05152,120.008,-3.55271e-15)">
        <path d="M10,0L13.09,6.26L20,7.27L15,12.14L16.18,19.02L10,15.77L3.82,19.02L5,12.14L0,7.27L6.91,6.26L10,0Z" style="fill:rgb(50,97,233);fill-rule:nonzero;"/>
    </g>
</svg>
