<?xml version="1.0" encoding="UTF-8" standalone="no"?>
<!DOCTYPE svg PUBLIC "-//W3C//DTD SVG 1.1//EN" "http://www.w3.org/Graphics/SVG/1.1/DTD/svg11.dtd">
<svg width="100%" height="100%" viewBox="0 0 37 37" version="1.1" xmlns="http://www.w3.org/2000/svg" xmlns:xlink="http://www.w3.org/1999/xlink" xml:space="preserve" xmlns:serif="http://www.serif.com/" style="fill-rule:evenodd;clip-rule:evenodd;">
    <path d="M18.5,36C28.165,36 36,28.165 36,18.5C36,8.835 28.165,1 18.5,1C8.835,1 1,8.835 1,18.5C1,28.165 8.835,36 18.5,36Z" style="fill:none;stroke:white;stroke-opacity:0.1;stroke-width:1.5px;"/>
    <path d="M14,11.5L14,21.5" style="fill:none;fill-rule:nonzero;stroke:white;stroke-width:2px;stroke-linecap:round;stroke-linejoin:round;"/>
    <path d="M24,16.5C25.381,16.5 26.5,15.381 26.5,14C26.5,12.619 25.381,11.5 24,11.5C22.619,11.5 21.5,12.619 21.5,14C21.5,15.381 22.619,16.5 24,16.5Z" style="fill:none;fill-rule:nonzero;stroke:white;stroke-width:2px;stroke-linecap:round;stroke-linejoin:round;"/>
    <path d="M14,26.5C15.381,26.5 16.5,25.381 16.5,24C16.5,22.619 15.381,21.5 14,21.5C12.619,21.5 11.5,22.619 11.5,24C11.5,25.381 12.619,26.5 14,26.5Z" style="fill:none;fill-rule:nonzero;stroke:white;stroke-width:2px;stroke-linecap:round;stroke-linejoin:round;"/>
    <path d="M24,16.5C24,18.489 23.21,20.397 21.803,21.803C20.397,23.21 18.489,24 16.5,24" style="fill:none;fill-rule:nonzero;stroke:white;stroke-width:2px;stroke-linecap:round;stroke-linejoin:round;"/>
</svg>
